<svg width="13" height="13" viewBox="0 0 13 13" fill="none" xmlns="http://www.w3.org/2000/svg">
<g clip-path="url(#clip0_14_2)">
<path d="M2.30208 11.2396H5.01042C5.15992 11.2396 5.28125 11.1183 5.28125 10.9688V8.26042C5.28125 7.96115 5.52365 7.71875 5.82292 7.71875H7.17708C7.47635 7.71875 7.71875 7.96115 7.71875 8.26042V10.9688C7.71875 11.1183 7.84008 11.2396 7.98958 11.2396H10.6979C10.8474 11.2396 10.9688 11.1183 10.9688 10.9688V5.79882C10.9688 5.30102 10.7404 4.83059 10.3494 4.52238L6.5 1.48959L2.65065 4.52238C2.25956 4.83059 2.03125 5.30102 2.03125 5.79882V10.9688C2.03125 11.1183 2.15258 11.2396 2.30208 11.2396Z" stroke="black" stroke-miterlimit="10" stroke-linejoin="round"/>
</g>
<defs>
<clipPath id="clip0_14_2">
<rect width="13" height="13" fill="white"/>
</clipPath>
</defs>
</svg>
