<svg width="11" height="11" viewBox="0 0 11 11" fill="none" xmlns="http://www.w3.org/2000/svg">
<path d="M1.54 0.154C0.748004 0.440001 0.660004 0.880001 0.682004 5.038C0.682004 7.282 0.748004 9.526 0.836004 10.01C0.990004 10.868 1.034 10.89 1.936 10.956C2.75 11.022 2.904 10.956 3.014 10.582C3.124 10.142 3.3 10.12 5.5 10.12C7.7 10.12 7.876 10.142 7.986 10.582C8.096 10.956 8.25 11.022 9.064 10.956C9.966 10.89 10.01 10.868 10.164 10.01C10.252 9.526 10.318 7.282 10.318 4.994C10.34 -0.396 10.714 0 5.676 0.0220003C3.586 0.0220003 1.716 0.0880003 1.54 0.154ZM8.14 1.32C8.14 1.738 7.986 1.76 5.61 1.76C3.234 1.76 3.08 1.738 3.08 1.32C3.08 0.902 3.234 0.880001 5.61 0.880001C7.986 0.880001 8.14 0.902 8.14 1.32ZM9.196 4.202C9.24 5.434 9.174 5.94 8.954 6.138C8.734 6.314 7.612 6.38 5.258 6.336L1.87 6.27L1.804 4.642C1.76 3.74 1.782 2.882 1.848 2.706C1.958 2.464 2.684 2.42 5.544 2.464L9.13 2.53L9.196 4.202ZM3.168 7.964C3.344 8.272 3.322 8.426 3.036 8.712C2.376 9.372 1.386 8.514 1.98 7.788C2.332 7.392 2.838 7.458 3.168 7.964ZM9.108 7.964C9.284 8.272 9.262 8.426 8.976 8.712C8.316 9.372 7.326 8.514 7.92 7.788C8.272 7.392 8.778 7.458 9.108 7.964Z" fill="black"/>
<path d="M0.154001 2.794C-0.087999 3.014 -0.021999 5.016 0.220001 5.17C0.352001 5.258 0.440001 4.796 0.440001 3.982C0.440001 2.618 0.418001 2.53 0.154001 2.794Z" fill="black"/>
<path d="M10.56 3.96C10.56 4.796 10.648 5.258 10.78 5.17C10.912 5.104 11 4.554 11 3.96C11 3.366 10.912 2.816 10.78 2.75C10.648 2.662 10.56 3.124 10.56 3.96Z" fill="black"/>
</svg>
