<svg width="15" height="14" viewBox="0 0 15 14" fill="none" xmlns="http://www.w3.org/2000/svg">
<g clip-path="url(#clip0_14_12)">
<path d="M13.5955 1.07739C13.1846 1.24251 1.52253 6.24443 1.52253 6.24443C1.52253 6.24443 0.957731 6.44091 1.00253 6.80379C1.04733 7.16667 1.50813 7.33275 1.50813 7.33275L4.50973 8.36059C4.50973 8.36059 5.41597 11.3839 5.59453 11.9577C5.77309 12.5324 5.91581 12.5459 5.91581 12.5459C6.08157 12.6195 6.23325 12.502 6.23325 12.502L8.17277 10.703L11.1961 13.0611C12.0134 13.4239 12.3107 12.6681 12.3107 12.6681L14.3936 1.81211C14.5779 0.972109 14.0294 0.903629 13.5955 1.07739Z" stroke="black" stroke-miterlimit="10"/>
<path d="M4.51996 8.35995L12.2 3.23995L6.75996 9.63995" stroke="black" stroke-miterlimit="10" stroke-linecap="round" stroke-linejoin="round"/>
<path d="M6.12 12.5199L6.76 9.63995L8.04 10.5999" stroke="black" stroke-miterlimit="10" stroke-linecap="round" stroke-linejoin="round"/>
</g>
<defs>
<clipPath id="clip0_14_12">
<rect width="15" height="14" fill="white"/>
</clipPath>
</defs>
</svg>
