<svg width="12" height="12" viewBox="0 0 12 12" fill="none" xmlns="http://www.w3.org/2000/svg">
<g clip-path="url(#clip0_14_9)">
<path fill-rule="evenodd" clip-rule="evenodd" d="M2.541 1H9.459C10.31 1 11 1.69 11 2.541V9.459C11 10.31 10.31 11 9.459 11H2.541C1.69 11 1 10.31 1 9.459V2.541C1 1.69 1.69 1 2.541 1Z" stroke="black" stroke-miterlimit="10"/>
<path fill-rule="evenodd" clip-rule="evenodd" d="M5.91601 8.0005H6.32501C6.32501 8.0005 6.44851 7.987 6.51151 7.919C6.56951 7.8565 6.56751 7.7395 6.56751 7.7395C6.56751 7.7395 6.55951 7.1905 6.81401 7.11C7.06501 7.0305 7.38751 7.6405 7.72951 7.875C7.98801 8.0525 8.18451 8.0135 8.18451 8.0135L9.09851 8.0005C9.09851 8.0005 9.57651 7.971 9.35001 7.595C9.33151 7.5645 9.21801 7.317 8.67051 6.809C8.09751 6.277 8.17401 6.363 8.86451 5.443C9.28501 4.8825 9.45301 4.5405 9.40051 4.394C9.35051 4.2545 9.04101 4.2915 9.04101 4.2915L8.01201 4.298C8.01201 4.298 7.93551 4.2875 7.87901 4.3215C7.82351 4.3545 7.78801 4.432 7.78801 4.432C7.78801 4.432 7.62501 4.8655 7.40801 5.2345C6.95001 6.0125 6.76651 6.0535 6.69151 6.0055C6.51701 5.893 6.56101 5.553 6.56101 5.312C6.56101 4.558 6.67551 4.2435 6.33851 4.162C6.22651 4.135 6.14451 4.117 5.85801 4.114C5.49101 4.1105 5.18001 4.115 5.00401 4.2015C4.88701 4.259 4.79651 4.3865 4.85151 4.394C4.91951 4.403 5.07351 4.4355 5.15501 4.5465C5.26051 4.69 5.25701 5.012 5.25701 5.012C5.25701 5.012 5.31751 5.8995 5.11551 6.01C4.97701 6.0855 4.78651 5.931 4.37801 5.2255C4.16851 4.864 4.01051 4.464 4.01051 4.464C4.01051 4.464 3.98001 4.3895 3.92551 4.3495C3.85951 4.301 3.76751 4.2855 3.76751 4.2855L2.78951 4.292C2.78951 4.292 2.64251 4.296 2.58901 4.36C2.54101 4.417 2.58501 4.534 2.58501 4.534C2.58501 4.534 3.35051 6.325 4.21751 7.2275C5.01351 8.0545 5.91601 8.0005 5.91601 8.0005Z" fill="black"/>
</g>
<defs>
<clipPath id="clip0_14_9">
<rect width="12" height="12" fill="white"/>
</clipPath>
</defs>
</svg>
