<svg width="20" height="18" viewBox="0 0 20 18" fill="none" xmlns="http://www.w3.org/2000/svg">
<path d="M9.47996 0.439996C9.31996 0.599996 9.19996 2.88 9.19996 5.52C9.19996 10.16 9.15996 10.28 8.47996 9.68C7.59996 8.88 6.39996 8.8 6.39996 9.52C6.39996 9.8 7.19996 10.84 8.19996 11.8L9.99996 13.56L11.8 11.8C12.8 10.84 13.6 9.8 13.6 9.52C13.6 8.76 12.2 8.88 11.56 9.68C11.08 10.24 10.96 9.64 10.8 5.4C10.6 0.839995 10.28 -0.360004 9.47996 0.439996Z" fill="black"/>
<path d="M0.799988 14.96C0.799988 17.72 1.03999 17.8 9.99999 17.8C18.96 17.8 19.2 17.72 19.2 14.96C19.2 13.68 19.08 13.4 18.4 13.4C17.76 13.4 17.6 13.68 17.6 14.8V16.2H9.99999H2.39999V14.8C2.39999 13.68 2.23999 13.4 1.59999 13.4C0.919988 13.4 0.799988 13.68 0.799988 14.96Z" fill="black"/>
</svg>
