<svg width="20" height="10" viewBox="0 0 20 10" fill="none" xmlns="http://www.w3.org/2000/svg">
<path d="M5.25 1.25C3.8125 2 2.125 3.125 1.5625 3.8125C0.5 4.93749 0.5 5.0625 1.5625 6.24999C3.625 8.56249 7.9375 10.1875 11.0625 9.81249C14.125 9.49999 19.0625 6.49999 19.0625 4.99999C19.0625 4.49999 17.875 3.3125 16.4375 2.3125C12.9375 -0.187505 8.75 -0.562505 5.25 1.25ZM13.8125 2.625C15.3125 4.93749 13 8.74999 10.0625 8.74999C6.0625 8.74999 4 3.125 7.5 1.6875C9 1.0625 13.25 1.6875 13.8125 2.625ZM4.5 5.31249C4.6875 6.18749 4.625 6.87499 4.375 6.87499C3.5 6.87499 2.375 5.06249 2.8125 4.37499C3.5 3.3125 4.1875 3.6875 4.5 5.31249ZM17.1875 4.37499C17.625 5.06249 16.5 6.87499 15.625 6.87499C15.375 6.87499 15.3125 6.18749 15.5 5.31249C15.8125 3.6875 16.5 3.3125 17.1875 4.37499Z" fill="black"/>
<path d="M8.37501 3.37499C7.75001 4.99999 8.62501 6.37499 10.125 6.12499C11.1875 5.99999 11.5625 5.49999 11.5625 4.37499C11.5625 3.24999 11.1875 2.74999 10.125 2.62499C9.31251 2.49999 8.56251 2.81249 8.37501 3.37499Z" fill="black"/>
</svg>
