<svg width="20" height="20" viewBox="0 0 20 20" fill="none" xmlns="http://www.w3.org/2000/svg">
<g clip-path="url(#clip0_16_53)">
<path d="M10 0C7.34784 0 4.8043 1.05357 2.92893 2.92893C1.05357 4.8043 0 7.34784 0 10C0 12.6522 1.05357 15.1957 2.92893 17.0711C4.8043 18.9464 7.34784 20 10 20C12.6522 20 15.1957 18.9464 17.0711 17.0711C18.9464 15.1957 20 12.6522 20 10C20 7.34784 18.9464 4.8043 17.0711 2.92893C15.1957 1.05357 12.6522 0 10 0Z" fill="#29B6F6"/>
<path d="M14.975 5.5L13.102 15.063C13.102 15.063 13.0215 15.5 12.4795 15.5C12.1915 15.5 12.043 15.363 12.043 15.363L7.986 11.9965L6.001 10.996L3.4535 10.3185C3.4535 10.3185 3 10.1875 3 9.8125C3 9.5 3.4665 9.351 3.4665 9.351L14.1245 5.117C14.1245 5.117 14.45 4.9995 14.6875 5C14.8335 5 15 5.0625 15 5.25C15 5.375 14.975 5.5 14.975 5.5Z" fill="white"/>
<path d="M9.50001 13.2525L7.78701 14.9395C7.78701 14.9395 7.71251 14.997 7.61301 14.9995C7.57851 15.0005 7.54151 14.995 7.50351 14.978L7.98551 11.9955L9.50001 13.2525Z" fill="#B0BEC5"/>
<path d="M12.9485 7.09795C12.864 6.98795 12.708 6.96795 12.598 7.05145L6 10.9999C6 10.9999 7.053 13.9459 7.2135 14.4559C7.3745 14.9664 7.5035 14.9784 7.5035 14.9784L7.9855 11.9959L12.9015 7.44795C13.0115 7.36445 13.032 7.20795 12.9485 7.09795Z" fill="#CFD8DC"/>
</g>
<defs>
<clipPath id="clip0_16_53">
<rect width="20" height="20" fill="white"/>
</clipPath>
</defs>
</svg>
