<svg width="20" height="20" viewBox="0 0 20 20" fill="none" xmlns="http://www.w3.org/2000/svg">
<g clip-path="url(#clip0_16_50)">
<path d="M20 17.2222C20 18.7567 18.7567 20 17.2222 20H2.77778C1.24389 20 0 18.7567 0 17.2222V2.77778C0 1.24333 1.24389 0 2.77778 0H17.2222C18.7567 0 20 1.24333 20 2.77778V17.2222Z" fill="#1976D2"/>
<path d="M16.6317 6.68942C16.6572 6.60553 16.6694 6.52775 16.6661 6.45831C16.6578 6.2572 16.5194 6.11108 16.1939 6.11108H14.7394C14.3722 6.11108 14.2028 6.33331 14.1039 6.55608C14.1039 6.55608 13.1972 8.42219 12.1522 9.65275C11.8133 10.0089 11.6411 9.99997 11.4578 9.99997C11.3594 9.99997 11.1111 9.88108 11.1111 9.55497V6.67442C11.1111 6.28886 11.015 6.11108 10.7044 6.11108H8.12167C7.89556 6.11108 7.77778 6.28886 7.77778 6.4672C7.77778 6.83775 8.27667 6.92664 8.33334 7.96497V9.97775C8.33334 10.4666 8.24834 10.5555 8.065 10.5555C7.57056 10.5555 6.59722 8.88886 5.94556 6.70442C5.80445 6.27442 5.66334 6.11108 5.29611 6.11108H3.82778C3.40389 6.11108 3.33334 6.31886 3.33334 6.54108C3.33334 6.94164 3.66667 9.10719 5.48611 11.5972C6.80556 13.4028 8.54389 14.4444 10.0828 14.4444C11.015 14.4444 11.1106 14.2072 11.1106 13.8366V12.1855C11.1111 11.7405 11.2128 11.6666 11.5094 11.6666C11.7211 11.6666 12.1528 11.8055 12.9861 12.7778C13.9472 13.8989 14.1217 14.4444 14.6728 14.4444H16.1272C16.465 14.4444 16.6589 14.3028 16.6667 14.0278C16.6683 13.9578 16.6583 13.8794 16.6356 13.7922C16.5278 13.4722 16.0333 12.69 15.4167 11.9444C15.075 11.5316 14.7378 11.1228 14.5828 10.9005C14.4789 10.7555 14.4394 10.6533 14.4444 10.5555C14.4494 10.4528 14.5028 10.355 14.5828 10.2183C14.5683 10.2183 16.4483 7.57886 16.6317 6.68942Z" fill="white"/>
</g>
<defs>
<clipPath id="clip0_16_50">
<rect width="20" height="20" fill="white"/>
</clipPath>
</defs>
</svg>
