<svg width="16" height="11" viewBox="0 0 16 11" fill="none" xmlns="http://www.w3.org/2000/svg">
<g clip-path="url(#clip0_44_3)">
<path d="M19.8205 6.74137L6.25617 6.74137C5.60449 6.74137 5.07666 6.24213 5.07666 5.62575C5.07666 5.00937 5.60449 4.51013 6.25617 4.51013L19.8205 4.51013C20.4722 4.51013 21 5.00937 21 5.62575C21 6.24213 20.4722 6.74137 19.8205 6.74137Z" fill="black"/>
<path d="M11.564 1.90516L7.01401 6.20866C6.554 6.64375 5.80796 6.64375 5.34501 6.20866C4.885 5.77357 4.885 5.06794 5.34501 4.63006L9.8979 0.326563C10.3579 -0.108529 11.1039 -0.108529 11.5669 0.326563C12.0269 0.761654 12.0269 1.47007 11.564 1.90516Z" fill="black"/>
<path d="M11.564 9.09534L7.02585 4.80299C6.58648 4.38742 5.88762 4.3679 5.42467 4.74442C5.40108 4.76395 5.38044 4.78347 5.35685 4.80299C4.89684 5.23808 4.89684 5.94371 5.35685 6.38159L9.895 10.6739C10.355 11.109 11.101 11.109 11.564 10.6739C12.027 10.2361 12.027 9.53043 11.564 9.09534Z" fill="black"/>
</g>
<path d="M6.56395 1.90516L2.01401 6.20866C1.554 6.64375 0.807962 6.64375 0.345006 6.20866C-0.115002 5.77357 -0.115002 5.06794 0.345006 4.63006L4.8979 0.326563C5.35791 -0.108529 6.10394 -0.108529 6.5669 0.326563C7.02691 0.761654 7.02691 1.47007 6.56395 1.90516Z" fill="black"/>
<path d="M6.564 9.09534L2.02585 4.80299C1.58648 4.38742 0.887624 4.3679 0.424668 4.74442C0.401078 4.76395 0.380436 4.78347 0.356846 4.80299C-0.103161 5.23808 -0.103161 5.94371 0.356846 6.38159L4.895 10.6739C5.355 11.109 6.10104 11.109 6.564 10.6739C7.02695 10.2361 7.02695 9.53043 6.564 9.09534Z" fill="black"/>
<defs>
<clipPath id="clip0_44_3">
<rect width="16" height="11" fill="white" transform="translate(5 0.000244141)"/>
</clipPath>
</defs>
</svg>
