<svg width="21" height="11" viewBox="0 0 21 11" fill="none" xmlns="http://www.w3.org/2000/svg">
<g clip-path="url(#clip0_44_4)">
<path d="M1.17951 4.25912L14.7438 4.25912C15.3955 4.25912 15.9233 4.75836 15.9233 5.37474C15.9233 5.99112 15.3955 6.49036 14.7438 6.49036L1.17951 6.49036C0.527837 6.49036 7.62939e-06 5.99112 7.62939e-06 5.37474C7.62939e-06 4.75836 0.527837 4.25912 1.17951 4.25912Z" fill="black"/>
<path d="M9.43605 9.09533L13.986 4.79183C14.446 4.35673 15.192 4.35673 15.655 4.79183C16.115 5.22692 16.115 5.93255 15.655 6.37043L11.1021 10.6739C10.6421 11.109 9.89606 11.109 9.4331 10.6739C8.97309 10.2388 8.97309 9.53042 9.43605 9.09533Z" fill="black"/>
<path d="M9.436 1.90515L13.9742 6.1975C14.4135 6.61306 15.1124 6.63259 15.5753 6.25607C15.5989 6.23654 15.6196 6.21702 15.6432 6.1975C16.1032 5.7624 16.1032 5.05678 15.6432 4.6189L11.105 0.326552C10.645 -0.108539 9.89896 -0.108539 9.436 0.326552C8.97305 0.764432 8.97305 1.47006 9.436 1.90515Z" fill="black"/>
</g>
<g clip-path="url(#clip1_44_4)">
<path d="M14.436 9.09533L18.986 4.79183C19.446 4.35673 20.192 4.35673 20.655 4.79183C21.115 5.22692 21.115 5.93255 20.655 6.37043L16.1021 10.6739C15.6421 11.109 14.8961 11.109 14.4331 10.6739C13.9731 10.2388 13.9731 9.53042 14.436 9.09533Z" fill="black"/>
<path d="M14.436 1.90515L18.9742 6.1975C19.4135 6.61306 20.1124 6.63259 20.5753 6.25607C20.5989 6.23654 20.6196 6.21702 20.6432 6.1975C21.1032 5.7624 21.1032 5.05678 20.6432 4.6189L16.105 0.326552C15.645 -0.108539 14.899 -0.108539 14.436 0.326552C13.973 0.764432 13.973 1.47006 14.436 1.90515Z" fill="black"/>
</g>
<defs>
<clipPath id="clip0_44_4">
<rect width="16" height="11" fill="white" transform="matrix(-1 0 0 -1 16 11.0002)"/>
</clipPath>
<clipPath id="clip1_44_4">
<rect width="16" height="11" fill="white" transform="matrix(-1 0 0 -1 21 11.0002)"/>
</clipPath>
</defs>
</svg>
