<svg width="16" height="11" viewBox="0 0 16 11" fill="none" xmlns="http://www.w3.org/2000/svg">
<path d="M14.8205 6.74137H1.25617C0.604489 6.74137 0.0766602 6.24213 0.0766602 5.62575C0.0766602 5.00937 0.604489 4.51013 1.25617 4.51013H14.8205C15.4722 4.51013 16 5.00937 16 5.62575C16 6.24213 15.4722 6.74137 14.8205 6.74137Z" fill="black"/>
<path d="M6.56395 1.90516L2.01401 6.20866C1.554 6.64375 0.807962 6.64375 0.345006 6.20866C-0.115002 5.77357 -0.115002 5.06794 0.345006 4.63006L4.8979 0.326563C5.35791 -0.108529 6.10394 -0.108529 6.5669 0.326563C7.02691 0.761654 7.02691 1.47007 6.56395 1.90516Z" fill="black"/>
<path d="M6.564 9.09534L2.02585 4.80299C1.58648 4.38742 0.887624 4.3679 0.424668 4.74442C0.401078 4.76395 0.380436 4.78347 0.356846 4.80299C-0.103161 5.23808 -0.103161 5.94371 0.356846 6.38159L4.895 10.6739C5.355 11.109 6.10104 11.109 6.564 10.6739C7.02695 10.2361 7.02695 9.53043 6.564 9.09534Z" fill="black"/>
</svg>
