<svg width="53" height="53" viewBox="0 0 53 53" fill="none" xmlns="http://www.w3.org/2000/svg">
<g clip-path="url(#clip0_14_30)">
<rect width="53" height="53" fill="white"/>
<path d="M26.1451 0.0476913C26.1372 0.0556412 25.9623 0.0715408 25.7556 0.0821419C24.6187 0.148392 24.0596 0.196091 23.3732 0.29414C22.8035 0.373642 21.9899 0.514091 21.6242 0.596241C21.4255 0.641289 20.9776 0.74464 20.6305 0.824139C20.0581 0.956642 19.1359 1.19249 18.8815 1.26934C18.06 1.52374 17.6386 1.66419 17.3524 1.77814C17.2835 1.80464 17.2146 1.82849 17.1961 1.82849C17.1775 1.82849 17.1139 1.84969 17.0556 1.87619C16.9947 1.90269 16.8754 1.95304 16.788 1.98749C16.7005 2.01929 16.5627 2.07494 16.4832 2.10674C16.4037 2.14119 16.2712 2.19419 16.1917 2.22599C16.1122 2.25779 15.9744 2.31874 15.887 2.35849C15.4789 2.54929 15.3702 2.59699 15.357 2.59699C15.3358 2.59699 14.4825 3.02364 14.2042 3.17204C14.0797 3.23829 13.8862 3.34164 13.7723 3.40259C13.502 3.54569 13.449 3.57484 13.2767 3.68349C13.1972 3.73384 13.1071 3.78949 13.078 3.80804C12.3333 4.23734 10.7115 5.35034 10.1391 5.82204C10.0649 5.88299 9.92711 5.99164 9.83436 6.06054C9.74161 6.13209 9.60116 6.24604 9.52166 6.31759C9.44216 6.38914 9.31496 6.49514 9.24076 6.55079C9.01021 6.72304 8.61271 7.09934 7.70906 8.00299C7.23471 8.47734 6.76566 8.96494 6.66496 9.08949C6.56426 9.21404 6.42381 9.38099 6.34961 9.46314C6.04486 9.79704 5.16506 10.9551 4.76491 11.5407C4.46281 11.9886 4.38861 12.0919 4.35416 12.1317C4.33561 12.1502 4.31971 12.1767 4.31971 12.19C4.31971 12.2032 4.30381 12.2297 4.28261 12.2483C4.26406 12.2695 4.22431 12.3251 4.19781 12.3728C4.13421 12.4841 4.11831 12.5133 3.99906 12.6935C3.83211 12.9505 3.80296 12.9982 3.76851 13.0645C3.75261 13.1016 3.70226 13.1837 3.65721 13.25C3.61481 13.3162 3.57241 13.3878 3.56181 13.409C3.55386 13.4302 3.53796 13.4673 3.52471 13.4885C3.51146 13.5097 3.42666 13.6581 3.33656 13.8197C3.24646 13.9787 3.15106 14.1457 3.12721 14.1907C3.05301 14.3179 2.59721 15.2295 2.59721 15.2507C2.59721 15.2613 2.54421 15.3832 2.47796 15.521C2.41171 15.6562 2.35871 15.7834 2.35871 15.8019C2.35871 15.8178 2.33486 15.8629 2.30571 15.9C2.27656 15.9371 2.25271 15.9768 2.25271 15.9901C2.25271 16.0325 2.11491 16.3611 2.07781 16.4167C2.05661 16.4459 2.04071 16.4856 2.04071 16.5042C2.04071 16.5254 2.02481 16.5784 2.00361 16.6234C1.95061 16.7427 1.84196 17.0077 1.80221 17.119C1.72006 17.3548 1.37291 18.3963 1.32256 18.5632C1.08141 19.3847 0.986011 19.7319 0.951561 19.9174C0.938311 19.9916 0.909161 20.0949 0.887961 20.1479C0.866761 20.2009 0.848211 20.2725 0.848211 20.3043C0.848211 20.3387 0.827011 20.4474 0.797861 20.5507C0.668011 21.0357 0.501061 21.8333 0.397711 22.4852C0.381811 22.5859 0.355311 22.729 0.342061 22.8032C0.291711 23.0788 0.204261 23.8526 0.132711 24.6847C0.0558607 25.5672 0.0558607 27.4142 0.132711 28.2887C0.204261 29.0784 0.294361 29.8761 0.344711 30.1437C0.357961 30.2153 0.400361 30.4538 0.437461 30.6737C0.474561 30.891 0.522261 31.1534 0.540811 31.2567C0.562011 31.3574 0.591161 31.5138 0.609711 31.6012C0.625611 31.6887 0.662711 31.8503 0.689211 31.959C0.750161 32.2134 0.792561 32.3883 0.827011 32.5552C0.842911 32.6268 0.877361 32.7566 0.903861 32.8414C0.933011 32.9236 0.954211 33.0216 0.954211 33.0587C0.954211 33.0932 0.978061 33.1833 1.00721 33.2575C1.03636 33.3317 1.06021 33.4218 1.06021 33.4589C1.06021 33.4933 1.07876 33.5675 1.10261 33.6232C1.12646 33.6762 1.15561 33.7742 1.16621 33.8405C1.17681 33.9067 1.20331 34.0127 1.22716 34.079C1.25101 34.1452 1.29341 34.2804 1.32256 34.3837C1.39941 34.6355 1.62201 35.3139 1.72271 35.5895C1.76776 35.714 1.81546 35.8492 1.82606 35.8942C1.83931 35.9366 1.88701 36.0559 1.93206 36.1539C1.97711 36.2546 2.01421 36.35 2.01421 36.3659C2.01421 36.3924 2.13876 36.6707 2.21561 36.8138C2.23681 36.8509 2.25271 36.9039 2.25271 36.933C2.25271 36.9595 2.27656 37.0099 2.30571 37.047C2.33486 37.0841 2.35871 37.1265 2.35871 37.145C2.35871 37.2007 3.00001 38.5601 3.06361 38.637C3.07951 38.6582 3.13781 38.7589 3.19346 38.8622C3.24646 38.9629 3.31536 39.0928 3.34716 39.1458C3.37896 39.2014 3.44256 39.3154 3.49026 39.4028C3.53796 39.4876 3.61216 39.6175 3.65456 39.6864C3.69696 39.7579 3.77911 39.8931 3.83211 39.9885C3.88776 40.0839 3.97256 40.2164 4.02026 40.2853C4.06796 40.3542 4.10771 40.4178 4.10771 40.4231C4.10771 40.431 4.16336 40.5185 4.23226 40.6192C4.66156 41.2499 4.94511 41.6633 5.03786 41.7905C5.09616 41.87 5.17301 41.9786 5.20746 42.029C5.24191 42.0793 5.29756 42.1509 5.33201 42.188C5.36646 42.2251 5.43801 42.3205 5.49366 42.4C5.74276 42.763 6.60401 43.8071 6.99091 44.2152C7.70111 44.9678 8.94131 46.1762 9.14536 46.314C9.20366 46.3538 9.49781 46.6029 9.58791 46.685C9.60646 46.7036 9.70981 46.7857 9.81316 46.8652C9.91916 46.9474 10.0808 47.0719 10.1762 47.1461C10.4174 47.3343 10.8546 47.6602 11.2283 47.9305C11.4906 48.1213 12.654 48.8845 12.9349 49.0488C13.1151 49.1575 13.2953 49.2661 13.335 49.2926C13.3748 49.3218 13.494 49.3907 13.6 49.4463C13.706 49.502 13.926 49.6159 14.085 49.7007C14.2466 49.7855 14.4056 49.8756 14.4427 49.8995C14.4798 49.9233 14.5805 49.9763 14.668 50.0187C14.7554 50.0585 14.9118 50.1327 15.0125 50.183C15.1158 50.2334 15.2881 50.3155 15.3967 50.3632C15.6909 50.4904 16.0089 50.6388 16.091 50.6839C16.1281 50.7051 16.1758 50.721 16.1917 50.721C16.2103 50.721 16.3348 50.7687 16.4673 50.8243C16.5998 50.8826 16.7933 50.9621 16.894 50.9992C16.9973 51.039 17.1033 51.0814 17.1325 51.0946C17.1616 51.1079 17.2517 51.1397 17.3312 51.1662C17.4107 51.1953 17.7102 51.2934 17.9937 51.3888C18.8391 51.6723 19.2286 51.7836 20.1402 52.0036C20.2197 52.0248 20.3628 52.0592 20.4582 52.0831C20.9432 52.1997 21.1234 52.2394 21.5977 52.3401C21.8813 52.3984 22.1807 52.4567 22.2602 52.47C22.3397 52.4806 22.5067 52.5097 22.6312 52.5309C23.2036 52.6343 24.0993 52.7482 24.8042 52.8039C26.7732 52.9576 29.0866 52.8542 30.8727 52.5309C30.9973 52.5097 31.1642 52.4806 31.2437 52.47C31.4319 52.4408 32.2375 52.2739 32.5952 52.1891C32.7489 52.1546 32.9821 52.099 33.112 52.0672C33.2445 52.038 33.4167 51.9956 33.4962 51.9718C33.5757 51.9506 33.7082 51.9161 33.7877 51.8976C34.1826 51.8048 34.5377 51.7015 35.0862 51.5292C35.2532 51.4736 35.444 51.4153 35.5102 51.3941C35.5765 51.3755 35.7302 51.3225 35.8547 51.2748C35.9793 51.2298 36.133 51.1768 36.1992 51.1556C36.2655 51.1344 36.3423 51.1079 36.3715 51.0946C36.4006 51.0814 36.5093 51.039 36.61 50.9992C36.7133 50.9621 36.9041 50.8826 37.0366 50.8243C37.1691 50.7687 37.2937 50.721 37.3096 50.721C37.3281 50.721 37.3864 50.6998 37.4394 50.6706C37.4924 50.6441 37.5799 50.6017 37.6302 50.5805C37.6806 50.5567 37.8263 50.4904 37.9562 50.4295C38.0834 50.3712 38.192 50.3235 38.1973 50.3235C38.2212 50.3235 39.0029 49.9366 39.1672 49.8438C39.4508 49.6848 39.6177 49.5947 39.8695 49.4622C40.002 49.3933 40.1265 49.3218 40.1477 49.3032C40.1689 49.2847 40.2352 49.2449 40.2935 49.2131C40.3518 49.1813 40.418 49.1469 40.4392 49.131C40.4604 49.1177 40.5797 49.0462 40.7042 48.9693C41.0169 48.7812 42.1829 47.9994 42.44 47.806C42.5566 47.7185 42.7156 47.6046 42.7924 47.5542C42.8666 47.5012 42.97 47.427 43.0177 47.3846C43.0627 47.3449 43.1634 47.2707 43.235 47.223C43.3092 47.1726 43.3913 47.109 43.4205 47.0825C43.4496 47.0534 43.5742 46.9527 43.6987 46.8573C43.8233 46.7592 43.9293 46.6744 43.9372 46.6665C43.969 46.632 44.3029 46.3538 44.3877 46.2902C44.658 46.0914 46.5422 44.2232 46.8019 43.8972C46.884 43.7939 47.0271 43.6269 47.1199 43.5209C47.3557 43.2559 47.846 42.6385 48.0103 42.4C48.0659 42.3205 48.1428 42.2171 48.1825 42.1747C48.2779 42.0661 48.3866 41.9124 48.9431 41.1015C49.1789 40.7596 49.269 40.6245 49.3035 40.5662C49.3167 40.5397 49.4042 40.4019 49.4969 40.2614C49.701 39.9461 49.9925 39.4558 50.0455 39.3445C50.0667 39.2968 50.1144 39.212 50.1488 39.1537C50.1859 39.0954 50.2336 39.0106 50.2548 38.9682C50.2787 38.9232 50.3317 38.8278 50.3741 38.7562C50.4191 38.682 50.4615 38.6052 50.4695 38.584C50.4801 38.5628 50.4986 38.5257 50.5119 38.5045C50.6046 38.3508 50.8749 37.7651 51.291 36.8217C51.3095 36.7767 51.3572 36.6733 51.3943 36.5912C51.4314 36.509 51.4632 36.4322 51.4632 36.4242C51.4632 36.4136 51.4791 36.3686 51.5003 36.3235C51.6461 35.9949 51.6752 35.9234 51.6752 35.8916C51.6752 35.873 51.6964 35.8041 51.7256 35.7432C51.7521 35.6796 51.7892 35.5868 51.8051 35.5365C51.821 35.4861 51.9005 35.2476 51.98 35.0065C52.2105 34.3095 52.3775 33.7371 52.5524 33.0375C52.5789 32.9262 52.6266 32.7407 52.6531 32.6268C52.6822 32.5155 52.7193 32.3618 52.7352 32.2902C52.7538 32.216 52.7882 32.0835 52.8174 31.9908C52.8439 31.9007 52.8677 31.7788 52.8677 31.7205C52.8677 31.6622 52.8863 31.5668 52.9101 31.5085C52.9393 31.4396 52.9446 31.3892 52.9287 31.3733C52.9154 31.3601 52.4729 31.3521 51.8077 31.3548L50.7133 31.3627L50.6762 31.4952C50.655 31.5668 50.6258 31.7046 50.6126 31.7973C50.5967 31.8927 50.5702 31.9987 50.5516 32.0358C50.5331 32.0729 50.5092 32.171 50.4986 32.2505C50.488 32.33 50.4615 32.4227 50.443 32.4545C50.4218 32.4837 50.3926 32.5844 50.3794 32.6745C50.3635 32.7646 50.3423 32.852 50.3264 32.8679C50.3131 32.8865 50.2893 32.9713 50.2734 33.0587C50.2575 33.1435 50.231 33.2283 50.2177 33.2416C50.2018 33.2575 50.1912 33.2999 50.1912 33.3396C50.1912 33.3794 50.1674 33.4668 50.1382 33.5357C50.1091 33.6046 50.0852 33.6815 50.0852 33.7053C50.0852 33.7318 50.064 33.8113 50.0349 33.8829C50.0084 33.9544 49.9474 34.132 49.8997 34.2777C49.852 34.4235 49.799 34.5772 49.7805 34.6222C49.7619 34.6646 49.7142 34.7918 49.6745 34.9005C49.6347 35.0091 49.5791 35.1469 49.5526 35.2079C49.5234 35.2662 49.5022 35.3324 49.5022 35.3563C49.5022 35.3801 49.4863 35.4119 49.4651 35.4278C49.4439 35.4464 49.4201 35.5047 49.4095 35.563C49.3989 35.6186 49.3697 35.6849 49.3406 35.7114C49.3141 35.7352 49.2902 35.7882 49.2902 35.828C49.2902 35.8677 49.2664 35.9313 49.2372 35.9684C49.2081 36.0055 49.1842 36.0585 49.1842 36.0877C49.1842 36.1168 49.1657 36.1592 49.1445 36.1804C49.1259 36.2016 49.0994 36.2546 49.0888 36.2944C49.0782 36.3368 49.0332 36.4481 48.9855 36.5435C48.6913 37.145 48.4555 37.6141 48.3654 37.7757C48.3071 37.8764 48.2461 37.9904 48.2302 38.0248C48.2143 38.0593 48.1799 38.1176 48.1507 38.1547C48.1216 38.1891 48.0977 38.2395 48.0977 38.2607C48.0977 38.2845 48.0792 38.3216 48.058 38.3455C48.0368 38.3667 47.9838 38.4594 47.9361 38.5442C47.891 38.6317 47.8433 38.7085 47.8327 38.7165C47.8221 38.7244 47.793 38.7721 47.7691 38.8225C47.7161 38.9364 47.6737 39.008 47.3822 39.4426C47.0112 40.0017 46.9768 40.0521 46.8178 40.2826C46.4971 40.7437 46.3752 40.908 45.9698 41.4115C45.771 41.6633 45.5829 41.8912 45.5564 41.915C45.5299 41.9415 45.4451 42.0396 45.3709 42.1323C45.082 42.4954 44.1466 43.4838 43.7093 43.8866C42.9355 44.6021 42.803 44.7214 42.3446 45.095C42.2518 45.1692 42.1511 45.254 42.122 45.2805C42.0928 45.307 42.0266 45.36 41.9762 45.3945C41.9259 45.4316 41.7881 45.5349 41.6715 45.625C41.2925 45.9218 41.1971 45.9934 41.0752 46.0729C41.009 46.1153 40.9507 46.1577 40.9427 46.1656C40.9348 46.1762 40.6857 46.3458 40.3862 46.5446C40.0868 46.7433 39.8191 46.9235 39.79 46.9447C39.7635 46.9659 39.729 46.9845 39.7131 46.9845C39.6999 46.9845 39.6681 47.0004 39.6469 47.0216C39.623 47.0428 39.5382 47.0905 39.4587 47.1329C39.3792 47.1753 39.2891 47.2283 39.2626 47.2548C39.2335 47.2813 39.1911 47.3025 39.1646 47.3025C39.1407 47.3025 39.1036 47.321 39.0851 47.3449C39.0665 47.3687 39.0268 47.3979 38.995 47.4111C38.9658 47.4244 38.8757 47.4774 38.7962 47.5277C38.7167 47.5781 38.6319 47.6178 38.6081 47.6205C38.5842 47.6205 38.5498 47.6364 38.5339 47.6576C38.5153 47.6788 38.3643 47.7636 38.1973 47.8484C38.0304 47.9305 37.8873 48.0074 37.882 48.0206C37.874 48.0312 37.8343 48.0471 37.7919 48.0577C37.7495 48.0657 37.6991 48.0895 37.6832 48.1107C37.6673 48.1319 37.6196 48.1558 37.5772 48.1637C37.5348 48.1717 37.4871 48.1955 37.4712 48.2167C37.4553 48.2379 37.4023 48.2618 37.3573 48.2724C37.3096 48.2803 37.2433 48.3121 37.2089 48.3386C37.1744 48.3678 37.1294 48.389 37.1108 48.389C37.0923 48.389 37.0366 48.4128 36.9889 48.442C36.9412 48.4711 36.8856 48.495 36.8644 48.495C36.8432 48.495 36.8034 48.5135 36.7796 48.5374C36.7531 48.5612 36.7027 48.5851 36.6656 48.5877C36.6312 48.593 36.5543 48.6195 36.4934 48.6513C36.4351 48.6831 36.337 48.7308 36.2814 48.76C36.2231 48.7891 36.1568 48.813 36.1356 48.813C36.1144 48.813 36.0641 48.8315 36.0217 48.8527C35.9236 48.9031 35.6798 49.0011 35.4307 49.0939C35.3221 49.131 35.1949 49.1813 35.1472 49.1999C35.1021 49.2211 35.0438 49.237 35.0147 49.237C34.9882 49.237 34.9219 49.2608 34.8663 49.29C34.8133 49.3191 34.7444 49.343 34.7152 49.343C34.6834 49.343 34.6145 49.3668 34.5562 49.396C34.4979 49.4251 34.4237 49.449 34.3919 49.449C34.3575 49.449 34.2859 49.4728 34.2303 49.502C34.1773 49.5311 34.1004 49.555 34.0607 49.555C34.0183 49.555 33.952 49.5735 33.907 49.5974C33.8646 49.6186 33.7692 49.6504 33.695 49.6663C33.6234 49.6822 33.5307 49.7113 33.4909 49.7299C33.4512 49.7511 33.3982 49.767 33.3717 49.767C33.3452 49.767 33.2471 49.7882 33.1517 49.8173C33.0563 49.8465 32.8841 49.8915 32.7675 49.9207C32.6509 49.9498 32.5025 49.9869 32.4362 50.0028C31.9592 50.1247 31.3179 50.244 30.2235 50.4189C30.1811 50.4268 30.0671 50.4374 29.9717 50.4454C29.8763 50.4533 29.7571 50.4692 29.7067 50.4825C29.6564 50.4957 29.4762 50.5143 29.3092 50.5222C29.1423 50.5328 28.8799 50.5593 28.7262 50.5832C28.4877 50.6229 28.2121 50.6282 26.7387 50.6282C25.2627 50.6282 24.995 50.6203 24.7777 50.5832C24.6399 50.5593 24.3829 50.5302 24.208 50.5222C24.0331 50.5116 23.8396 50.4931 23.7813 50.4798C23.7204 50.4666 23.6038 50.4507 23.5243 50.4427C23.1904 50.4109 22.5226 50.3049 22.0085 50.2016C21.8203 50.1645 21.5739 50.1168 21.4652 50.0956C21.3566 50.077 21.2135 50.0399 21.1499 50.0187C21.0836 49.9975 21.0094 49.979 20.9829 49.979C20.9326 49.979 20.6702 49.9101 20.3522 49.8173C20.2568 49.7882 20.1588 49.767 20.1323 49.767C20.1058 49.767 20.0528 49.7511 20.013 49.7299C19.9733 49.7113 19.8779 49.6795 19.7984 49.6636C19.7189 49.6477 19.642 49.6239 19.6261 49.6106C19.6102 49.5974 19.5493 49.5788 19.491 49.5682C19.4327 49.5576 19.3346 49.5285 19.2737 49.4993C19.2127 49.4728 19.1385 49.449 19.1067 49.449C19.0776 49.449 19.006 49.4251 18.9477 49.396C18.8894 49.3668 18.8152 49.343 18.7834 49.343C18.749 49.343 18.6986 49.3271 18.6695 49.3059C18.6403 49.2873 18.5873 49.2635 18.5502 49.2582C18.4893 49.2423 18.2852 49.1707 17.8612 49.0091C17.7658 48.972 17.6572 48.9322 17.6174 48.919C17.5777 48.9057 17.5167 48.8766 17.4849 48.8554C17.4531 48.8315 17.4028 48.813 17.3763 48.813C17.3498 48.813 17.2835 48.7918 17.2305 48.7626C17.1775 48.7361 17.0768 48.6884 17.0053 48.6593C16.7933 48.5665 16.6475 48.5003 16.5283 48.4446C16.4673 48.4155 16.3454 48.3625 16.258 48.3227C16.1705 48.2856 16.0804 48.2406 16.0592 48.2273C16.038 48.2141 16.0009 48.1955 15.9797 48.1876C15.9585 48.1796 15.8631 48.1346 15.7677 48.0842C15.6723 48.0365 15.5001 47.9464 15.3835 47.8881C15.2669 47.8272 15.1529 47.7689 15.1317 47.7556C15.1105 47.7424 15.0734 47.7238 15.0522 47.7132C15.031 47.7053 14.9648 47.6682 14.9065 47.6337C14.8482 47.5993 14.7528 47.5463 14.6945 47.5145C14.5355 47.4323 14.4745 47.3952 14.4215 47.3475C14.395 47.321 14.3579 47.3025 14.3394 47.3025C14.3208 47.3025 14.2731 47.2813 14.236 47.2548C14.1963 47.2283 14.1459 47.1965 14.1247 47.1859C14.1035 47.1779 14.032 47.1329 13.9657 47.0905C13.8995 47.0481 13.82 47.0004 13.7855 46.9845C13.7537 46.9712 13.7113 46.9474 13.6928 46.9315C13.6769 46.9182 13.4172 46.7433 13.1177 46.5446C12.8183 46.3458 12.5692 46.1762 12.5612 46.1656C12.5533 46.155 12.4817 46.1047 12.4022 46.049C12.2459 45.943 12.0312 45.784 11.7795 45.5853C11.6947 45.5164 11.5781 45.4316 11.5251 45.3945C11.4694 45.3574 11.3846 45.2911 11.3369 45.2487C11.2892 45.2037 11.1541 45.0924 11.0375 44.997C10.8016 44.8062 10.685 44.7055 10.2822 44.3371C9.61971 43.7303 9.43951 43.5554 8.89096 42.9697C8.35301 42.3973 8.24171 42.2781 8.12246 42.1217C8.06681 42.0475 8.00056 41.9707 7.97671 41.9495C7.89986 41.8779 7.33276 41.1757 7.12341 40.8895C6.81071 40.4655 6.47946 39.9964 6.37346 39.8268C6.36021 39.803 6.25686 39.6466 6.14556 39.4823C5.96271 39.2067 5.81961 38.9762 5.72951 38.8092C5.71096 38.7721 5.65531 38.682 5.60496 38.6052C5.55461 38.5283 5.51221 38.4515 5.51221 38.4356C5.51221 38.4197 5.48836 38.3852 5.45921 38.3587C5.43006 38.3322 5.40621 38.2898 5.40621 38.2607C5.40621 38.2342 5.38236 38.1891 5.35586 38.1626C5.32936 38.1361 5.29756 38.0858 5.28696 38.054C5.27636 38.0222 5.24191 37.9559 5.21011 37.9109C5.17831 37.8632 5.02991 37.5743 4.87886 37.2696C4.72781 36.9648 4.58206 36.6733 4.55556 36.6203C4.52641 36.5673 4.50521 36.5064 4.50521 36.4825C4.50521 36.4613 4.48931 36.4295 4.46811 36.4136C4.44691 36.3951 4.42306 36.3421 4.41511 36.2944C4.40451 36.244 4.38066 36.191 4.36211 36.1751C4.34091 36.1566 4.31706 36.1036 4.30911 36.0559C4.29851 36.0055 4.27466 35.9525 4.25346 35.934C4.23226 35.9154 4.20841 35.8624 4.19781 35.8121C4.18986 35.7644 4.16601 35.7114 4.14746 35.6955C4.12626 35.6796 4.10241 35.6266 4.09181 35.5815C4.08121 35.5338 4.05206 35.4543 4.02556 35.404C3.99641 35.3536 3.97521 35.2953 3.97521 35.2768C3.97521 35.2582 3.96196 35.2158 3.94341 35.184C3.90896 35.1204 3.89306 35.078 3.68371 34.503C3.60951 34.291 3.53796 34.0763 3.52736 34.026C3.51676 33.9756 3.48761 33.8961 3.46376 33.8484C3.43991 33.8007 3.41871 33.7345 3.41871 33.6947C3.41871 33.6576 3.39486 33.5834 3.36571 33.5304C3.33656 33.4748 3.31271 33.3926 3.31271 33.3449C3.31271 33.2972 3.28886 33.2204 3.25971 33.1727C3.23056 33.125 3.20671 33.0428 3.20671 32.9925C3.20671 32.9395 3.18286 32.852 3.15371 32.7937C3.12456 32.7354 3.10071 32.6533 3.10071 32.6056C3.10071 32.5605 3.08216 32.4863 3.05831 32.4386C3.03446 32.3936 3.00796 32.2929 2.99736 32.216C2.98676 32.1392 2.96556 32.0544 2.94966 32.0252C2.93376 31.9961 2.91256 31.9007 2.90196 31.8132C2.88871 31.7258 2.86486 31.6198 2.84631 31.5747C2.82776 31.5297 2.80391 31.4157 2.79331 31.323C2.78271 31.2276 2.76416 31.1216 2.75091 31.0845C2.73501 31.0474 2.70851 30.9175 2.68731 30.793C2.66876 30.6684 2.62901 30.4114 2.59721 30.2232C2.52301 29.7674 2.50181 29.5925 2.45146 29.0572C2.42761 28.8081 2.39581 28.5352 2.38256 28.4477C2.34281 28.2172 2.32161 25.6626 2.35606 25.0292C2.38786 24.3826 2.45676 23.7148 2.58396 22.79C2.62636 22.4826 2.72176 21.942 2.74296 21.889C2.75091 21.8651 2.77476 21.7538 2.79596 21.6372C2.85691 21.3007 2.91256 21.0383 2.95496 20.9085C2.97351 20.8422 3.00001 20.7362 3.00796 20.67C3.01856 20.6037 3.04241 20.5242 3.06361 20.4924C3.08481 20.4606 3.10071 20.3944 3.10071 20.3467C3.10071 20.299 3.12456 20.2062 3.15371 20.1426C3.18286 20.079 3.20671 19.9942 3.20671 19.9518C3.20671 19.9068 3.23056 19.8273 3.25971 19.769C3.28886 19.7107 3.31271 19.6338 3.31271 19.5967C3.31271 19.5596 3.33656 19.4828 3.36571 19.4245C3.39486 19.3662 3.41871 19.2893 3.41871 19.2549C3.41871 19.2178 3.43991 19.1356 3.46906 19.0747C3.49556 19.0111 3.58301 18.7646 3.66516 18.5235C3.85331 17.9643 3.89041 17.8663 3.93281 17.7682C3.96726 17.694 4.00701 17.596 4.09181 17.3628C4.11036 17.3151 4.13951 17.2621 4.15541 17.2462C4.17396 17.2276 4.18721 17.1879 4.18721 17.1561C4.18721 17.1243 4.21106 17.0686 4.24021 17.0315C4.26936 16.9944 4.29321 16.9414 4.29321 16.9123C4.29321 16.8858 4.31441 16.8328 4.34356 16.7983C4.37006 16.7639 4.40186 16.6976 4.40981 16.6499C4.42041 16.6049 4.44426 16.5519 4.46546 16.536C4.48401 16.5201 4.50786 16.475 4.51846 16.4353C4.54761 16.3081 4.97161 15.4521 5.18096 15.0917C5.21541 15.0334 5.28166 14.9142 5.32671 14.8267C5.37441 14.7393 5.42476 14.6492 5.44331 14.628C5.46186 14.6068 5.49101 14.5485 5.51221 14.5008C5.53076 14.4557 5.55461 14.416 5.56521 14.416C5.57846 14.416 5.59966 14.3815 5.61291 14.3391C5.62616 14.2994 5.67386 14.2119 5.71361 14.1483C5.75601 14.0847 5.80636 13.9999 5.83021 13.9602C5.86466 13.8966 6.01041 13.6607 6.14821 13.4487C6.16941 13.4169 6.22771 13.3321 6.27541 13.2659C6.32046 13.197 6.36021 13.1307 6.36021 13.1201C6.36021 13.1095 6.38406 13.0777 6.41321 13.0512C6.44236 13.0247 6.49801 12.9479 6.53776 12.8816C6.57751 12.8154 6.64906 12.7067 6.69676 12.6405C6.82131 12.4735 7.10221 12.0866 7.17111 11.9886C7.20026 11.9462 7.25061 11.8799 7.27976 11.8428C7.31156 11.8084 7.41491 11.6785 7.51296 11.554C7.61366 11.4294 7.71436 11.3049 7.74086 11.2757C7.77001 11.2466 7.84686 11.1512 7.91576 11.0611C8.48816 10.3323 9.88206 8.91724 10.6797 8.25474C10.8334 8.12489 11.011 7.97384 11.0772 7.91289C11.1435 7.85194 11.3369 7.69559 11.5092 7.56574C11.6788 7.43324 11.9146 7.25304 12.0312 7.16029C12.1452 7.07019 12.2485 6.99599 12.2591 6.99599C12.2671 6.99599 12.3307 6.95094 12.3996 6.89529C12.4658 6.83964 12.5745 6.76014 12.6407 6.71774C12.707 6.67534 12.7838 6.62234 12.813 6.59584C12.8421 6.57199 12.9084 6.52959 12.9587 6.50309C13.0091 6.47659 13.1098 6.40769 13.184 6.35469C13.2555 6.29904 13.3244 6.25399 13.335 6.25399C13.3456 6.25399 13.4119 6.21159 13.4781 6.16124C13.547 6.10824 13.6398 6.04994 13.6848 6.03139C13.7299 6.01284 13.7829 5.97839 13.8041 5.95454C13.8226 5.92804 13.8518 5.90949 13.865 5.90949C13.8783 5.90949 13.9604 5.86179 14.0479 5.80349C14.1353 5.74519 14.2254 5.69749 14.244 5.69749C14.2652 5.69749 14.289 5.68424 14.297 5.67099C14.3076 5.65509 14.3579 5.61799 14.4109 5.58884C14.4639 5.55969 14.5567 5.50669 14.615 5.47224C14.6733 5.43514 14.7925 5.37154 14.88 5.32649C14.9674 5.27879 15.0681 5.22579 15.1052 5.20724C15.1423 5.18604 15.19 5.16219 15.2112 5.15424C15.2324 5.14364 15.3119 5.10389 15.3835 5.06149C15.5213 4.98464 16.1122 4.68519 16.3242 4.58979C16.3905 4.56064 16.5601 4.48114 16.7032 4.41489C16.8463 4.34864 16.9682 4.29299 16.9788 4.29299C16.9867 4.29299 17.0424 4.27179 17.1033 4.24264C17.4028 4.10749 17.469 4.08099 17.5035 4.08099C17.5247 4.08099 17.5962 4.05184 17.6651 4.01474C17.734 3.97764 17.8082 3.94849 17.8321 3.94849C17.8559 3.94849 17.8983 3.92994 17.9248 3.90874C17.954 3.88754 18.007 3.86899 18.0441 3.86899C18.0812 3.86899 18.1501 3.84514 18.1925 3.81599C18.2375 3.78684 18.2985 3.76299 18.3303 3.76299C18.3647 3.76299 18.4283 3.73914 18.476 3.70999C18.5237 3.68084 18.5873 3.65699 18.6165 3.65699C18.6456 3.65699 18.7039 3.63844 18.7463 3.61724C18.7887 3.59339 18.8682 3.56424 18.9186 3.55099C18.9716 3.53774 19.1385 3.48474 19.2922 3.43439C19.4459 3.38139 19.7666 3.28599 20.0077 3.21974C20.2489 3.15349 20.5245 3.07399 20.6199 3.04749C20.7153 3.01834 20.8239 2.99449 20.861 2.99449C20.8981 2.99449 20.9962 2.97064 21.081 2.94149C21.1658 2.91234 21.2797 2.88849 21.3327 2.88849C21.3857 2.88849 21.4387 2.87789 21.4546 2.86199C21.4679 2.84874 21.5686 2.82489 21.6772 2.80634C21.7859 2.79044 21.9369 2.76129 22.0085 2.74009C22.0827 2.71889 22.2178 2.69504 22.3132 2.68709C22.4086 2.67649 22.5067 2.65794 22.5305 2.64469C22.557 2.63409 22.7134 2.60494 22.8803 2.58374C23.0473 2.56254 23.2301 2.53604 23.2858 2.52014C23.3414 2.50689 23.5004 2.48834 23.6382 2.47774C23.776 2.46714 23.943 2.44859 24.0092 2.43534C24.0755 2.42209 24.3855 2.39294 24.6982 2.37174C25.0109 2.35054 25.4058 2.32139 25.5727 2.30549C25.9676 2.27104 27.539 2.27104 27.9312 2.30549C28.0982 2.32139 28.493 2.35054 28.8057 2.37174C29.1184 2.39294 29.4285 2.42209 29.4947 2.43534C29.561 2.44859 29.7279 2.46714 29.8657 2.47774C30.0035 2.48834 30.1625 2.50689 30.2182 2.52014C30.2738 2.53604 30.4567 2.56254 30.6236 2.58374C30.7906 2.60494 30.9496 2.63409 30.9787 2.64999C31.0052 2.66324 31.0688 2.67649 31.1165 2.67649C31.1642 2.67649 31.2808 2.69504 31.3762 2.71889C31.4716 2.74009 31.6306 2.76924 31.7313 2.78514C31.8294 2.79839 31.9539 2.82754 32.0043 2.84874C32.0573 2.86994 32.1368 2.88849 32.1845 2.88849C32.2295 2.88849 32.3382 2.91234 32.423 2.94149C32.5078 2.97064 32.6058 2.99449 32.6429 2.99449C32.68 2.99449 32.7887 3.01834 32.8841 3.04484C32.9795 3.07399 33.1544 3.12434 33.271 3.15349C33.6817 3.26214 34.3469 3.46354 34.4635 3.51124C34.5721 3.55629 34.7894 3.63049 34.8954 3.65699C34.9431 3.66759 35.0094 3.69674 35.0465 3.72059C35.0809 3.74444 35.1392 3.76299 35.171 3.76299C35.2055 3.76299 35.2691 3.78684 35.3115 3.81599C35.3565 3.84514 35.4228 3.86899 35.4599 3.86899C35.497 3.86899 35.55 3.88754 35.5791 3.90874C35.6056 3.92994 35.648 3.94849 35.6719 3.94849C35.6957 3.94849 35.7699 3.97764 35.8388 4.01474C35.9077 4.05184 35.9793 4.08099 36.0005 4.08099C36.0217 4.08099 36.0906 4.10484 36.1515 4.13134C36.2151 4.16049 36.3211 4.20819 36.3874 4.23734C36.4536 4.26914 36.5146 4.29299 36.5252 4.29299C36.5331 4.29299 36.6577 4.34864 36.8008 4.41489C36.9439 4.48114 37.1135 4.56064 37.1797 4.58979C37.6514 4.80444 38.7008 5.35564 39.0824 5.58354C39.1354 5.61799 39.2096 5.66039 39.2467 5.67629C39.2838 5.69484 39.3819 5.75579 39.4667 5.81144C39.5488 5.86444 39.6283 5.90949 39.6416 5.90949C39.6522 5.90949 39.684 5.93334 39.7105 5.96249C39.737 5.99164 39.7794 6.02079 39.8059 6.02874C39.8324 6.03934 39.9834 6.13209 40.1371 6.23544C40.2935 6.34144 40.471 6.45539 40.5346 6.49249C40.5956 6.52959 40.6751 6.58524 40.7095 6.61704C40.7466 6.65149 40.7811 6.67799 40.7917 6.67799C40.8155 6.67799 41.1918 6.94564 41.4992 7.18149C41.6026 7.26099 41.8146 7.42529 41.9709 7.54454C42.1273 7.66379 42.3207 7.82279 42.4002 7.89169C42.4797 7.96324 42.6546 8.10899 42.7845 8.21764C43.5715 8.85894 45.1748 10.4993 45.726 11.2254C45.7843 11.3022 45.9751 11.5434 46.15 11.7633C46.4706 12.1661 46.6031 12.3437 46.7489 12.561C46.8973 12.7862 47.0086 12.9452 47.096 13.0618C47.1437 13.1254 47.202 13.2102 47.2232 13.25C47.2444 13.2897 47.3584 13.4646 47.4723 13.6369C47.5889 13.8118 47.7108 14.0079 47.7426 14.0741C47.7771 14.143 47.8248 14.2119 47.846 14.2305C47.8672 14.249 47.8857 14.2835 47.8857 14.31C47.8857 14.3365 47.9043 14.3709 47.9255 14.3895C47.9467 14.408 47.997 14.4928 48.0341 14.5776C48.0712 14.6624 48.1269 14.7525 48.1534 14.7764C48.1825 14.8002 48.2037 14.8426 48.2037 14.8665C48.2037 14.8903 48.2276 14.9327 48.2567 14.9592C48.2859 14.9857 48.3097 15.0281 48.3097 15.052C48.3097 15.0785 48.3309 15.1262 48.3574 15.1606C48.3839 15.1951 48.4237 15.2587 48.4475 15.3037C48.4687 15.3461 48.5588 15.5263 48.6463 15.7012C48.7337 15.8761 48.845 16.1014 48.8901 16.2047C48.9378 16.3054 48.9987 16.4353 49.0279 16.4883C49.0544 16.5413 49.0782 16.6102 49.0782 16.6367C49.0782 16.6658 49.0994 16.7162 49.1286 16.7506C49.1551 16.7851 49.1869 16.8513 49.1948 16.899C49.2054 16.9441 49.2319 16.9971 49.2531 17.0156C49.2743 17.0315 49.2902 17.0739 49.2902 17.1057C49.2902 17.1375 49.3141 17.1958 49.3432 17.2329C49.3724 17.27 49.3962 17.3177 49.3962 17.3416C49.3962 17.3628 49.4254 17.437 49.4625 17.5059C49.4996 17.5748 49.5287 17.649 49.5287 17.6728C49.5287 17.6993 49.5393 17.7285 49.5526 17.7417C49.5658 17.7576 49.6003 17.8345 49.6294 17.914C49.6559 17.9935 49.7248 18.179 49.7778 18.3247C49.8812 18.6083 50.0561 19.1356 50.1435 19.4377C50.1727 19.5384 50.2098 19.6577 50.223 19.7027C50.2389 19.7451 50.2654 19.8405 50.2813 19.9147C50.2972 19.9863 50.3264 20.0737 50.3449 20.1055C50.3608 20.1373 50.3767 20.2089 50.3767 20.2645C50.3767 20.3202 50.4006 20.4103 50.4297 20.4659C50.4589 20.5189 50.4827 20.6064 50.4827 20.6594C50.4827 20.7097 50.5066 20.8078 50.5357 20.8767C50.5649 20.9456 50.5993 21.0728 50.6126 21.1602C50.6258 21.2477 50.655 21.3669 50.6762 21.4252L50.7159 21.5312H51.813H52.9075L52.9022 21.465C52.8836 21.2742 52.8439 21.0383 52.8068 20.9217C52.7856 20.8475 52.7458 20.7044 52.722 20.6037C52.6504 20.3096 52.5365 19.8485 52.4702 19.5835C52.4252 19.4086 52.29 18.9316 52.1787 18.55C52.1443 18.4413 52.0542 18.1604 51.9773 17.9272C51.9005 17.694 51.8236 17.4608 51.8051 17.4105C51.7892 17.3601 51.7521 17.2674 51.7256 17.2038C51.6964 17.1428 51.6752 17.0713 51.6752 17.0448C51.6752 17.0209 51.6514 16.96 51.6222 16.9123C51.5931 16.8646 51.5692 16.8116 51.5692 16.793C51.5692 16.7745 51.5454 16.7135 51.5162 16.6552C51.4871 16.5969 51.4632 16.5386 51.4632 16.5227C51.4632 16.5095 51.4447 16.4618 51.4208 16.4167C51.3996 16.3743 51.3466 16.2551 51.3069 16.1517C51.1055 15.6562 50.5622 14.514 50.3608 14.1642C50.3264 14.1059 50.2707 14.0052 50.2363 13.939C50.0508 13.5892 49.6374 12.8896 49.481 12.659C49.436 12.5901 49.3962 12.5265 49.3962 12.5186C49.3962 12.5106 49.375 12.4735 49.3459 12.4338C49.3194 12.394 49.2505 12.2933 49.1948 12.2059C49.0729 12.0257 49.0941 12.0522 48.7258 11.5275C48.27 10.8703 48.0871 10.6238 47.634 10.0567C47.5518 9.95339 47.4352 9.80499 47.3769 9.72549C47.316 9.64599 47.21 9.51879 47.1437 9.44724C47.0748 9.37304 46.937 9.21404 46.839 9.08949C46.7383 8.96494 46.2798 8.48794 45.8214 8.02949C44.8462 7.05429 44.6342 6.85289 44.3135 6.59319C44.083 6.40504 43.9399 6.28579 43.5556 5.96779C43.4549 5.88564 43.3304 5.78759 43.2774 5.75049C43.2244 5.71339 43.015 5.55969 42.811 5.40864C42.6069 5.25759 42.3976 5.10124 42.3472 5.06414C42.0743 4.86274 40.8553 4.05714 40.5585 3.88224C40.5081 3.85309 40.3889 3.78154 40.2935 3.72324C40.0444 3.57484 39.9993 3.54834 39.2865 3.16409C38.7724 2.88584 37.6037 2.33729 37.1797 2.17299C36.9041 2.06434 36.5517 1.92389 36.4695 1.88944C36.4245 1.86824 36.3344 1.83644 36.2708 1.81524C36.2098 1.79669 36.0402 1.73574 35.8945 1.68274C35.656 1.59529 35.0783 1.40449 34.7682 1.31439C34.4025 1.20574 33.2683 0.911591 33.0722 0.871841C33.006 0.86124 32.8867 0.832092 32.8072 0.81089C32.7277 0.789692 32.5184 0.739342 32.3435 0.70224C32.1686 0.662491 31.9539 0.614792 31.8665 0.59359C31.779 0.575039 31.6333 0.545891 31.5405 0.532639C31.4504 0.51939 31.3656 0.500839 31.3524 0.492889C31.3391 0.48494 31.2411 0.466389 31.1351 0.450489C31.0264 0.437241 30.8436 0.408089 30.727 0.38689C30.189 0.28619 29.2642 0.17754 28.5381 0.129841C28.3102 0.116589 27.9524 0.0927391 27.7431 0.0768394C27.3217 0.0476913 26.1663 0.0264893 26.1451 0.0476913Z" fill="black"/>
<path d="M26.1555 4.91044C26.1475 4.91839 25.8322 4.93694 25.4532 4.95284C25.0743 4.97139 24.6582 5.00054 24.5257 5.02439C24.3959 5.04559 24.1574 5.07474 23.9957 5.08799C23.8367 5.10124 23.6274 5.13039 23.532 5.15159C23.4366 5.17279 23.2988 5.19134 23.2246 5.19399C23.1504 5.19399 23.0364 5.21254 22.9728 5.23374C22.9092 5.25759 22.7847 5.28144 22.6972 5.28939C22.6098 5.29734 22.4852 5.32119 22.419 5.34239C22.3527 5.36359 22.2096 5.39539 22.101 5.41659C21.7909 5.47489 21.404 5.57029 20.8025 5.73459C20.6647 5.77169 20.4977 5.81409 20.4315 5.83264C20.3652 5.84854 20.2778 5.87769 20.2327 5.89624C20.1903 5.91744 20.1188 5.93864 20.0737 5.94924C20.0313 5.95984 19.9359 5.98899 19.8617 6.01549C19.6285 6.09764 19.5464 6.12414 19.4139 6.16124C19.3423 6.18244 19.2708 6.21159 19.2575 6.22484C19.2416 6.24074 19.1913 6.25399 19.1436 6.25399C19.0985 6.25399 19.0323 6.27519 18.9978 6.30169C18.9634 6.32819 18.8812 6.37059 18.815 6.39179C18.5765 6.47394 18.5076 6.50044 18.4148 6.54814C18.3618 6.57729 18.2956 6.59849 18.2691 6.59849C18.2399 6.59849 18.1896 6.62234 18.1525 6.65149C18.1154 6.68064 18.0703 6.70449 18.0518 6.70449C18.0147 6.70449 17.853 6.77604 17.5032 6.94564C17.384 7.00129 17.2753 7.04899 17.2568 7.04899C17.2382 7.04899 17.225 7.05959 17.225 7.07549C17.225 7.08874 17.2091 7.10199 17.1905 7.10199C17.172 7.10199 17.0686 7.14969 16.96 7.20799C16.8513 7.26629 16.7321 7.32459 16.695 7.34049C16.6579 7.35374 16.6102 7.38024 16.589 7.39349C16.5678 7.40939 16.5201 7.43324 16.483 7.44649C16.4459 7.46239 16.3982 7.48359 16.377 7.49684C16.3558 7.51274 16.2657 7.55779 16.1756 7.60284C16.0881 7.64789 15.998 7.70089 15.9795 7.72474C15.9609 7.74594 15.9238 7.76449 15.9 7.76449C15.8735 7.76449 15.8178 7.79099 15.7754 7.82544C15.7357 7.85724 15.6721 7.89964 15.635 7.91819C15.5979 7.93409 15.5449 7.96589 15.5157 7.98179C15.4866 8.00034 15.3938 8.06129 15.309 8.11429C15.2242 8.16994 15.1394 8.21499 15.1209 8.21499C15.0997 8.21499 15.0705 8.23354 15.052 8.25474C15.0334 8.27594 14.9513 8.33159 14.8691 8.37929C14.787 8.42434 14.7154 8.47204 14.7075 8.47999C14.6995 8.49059 14.5935 8.56479 14.469 8.64694C14.3444 8.72909 14.196 8.82979 14.1377 8.87219C14.0794 8.91194 14.0105 8.95434 13.9867 8.96494C13.9602 8.97289 13.939 8.99409 13.939 9.00734C13.939 9.02059 13.8992 9.05504 13.8542 9.08419C13.7455 9.15309 13.5653 9.28029 13.3798 9.42604C13.3003 9.48699 13.1652 9.59299 13.0777 9.66189C12.9903 9.72814 12.8551 9.83679 12.7783 9.90304C12.7014 9.97194 12.606 10.0488 12.5663 10.0779C12.1396 10.4039 10.4277 12.084 10.1627 12.4417C10.0912 12.5371 9.94542 12.7067 9.75462 12.9187C9.71487 12.9611 9.65392 13.0406 9.61947 13.091C9.58502 13.1413 9.50552 13.242 9.44457 13.3162C9.38362 13.3878 9.30412 13.4938 9.26702 13.5468C9.20342 13.6422 9.14777 13.7137 8.93312 13.9761C8.88542 14.0344 8.82447 14.1245 8.80327 14.1695C8.77942 14.2172 8.75292 14.257 8.74232 14.257C8.73172 14.257 8.69727 14.302 8.66282 14.355C8.60452 14.4557 8.44817 14.6969 8.19377 15.0838C8.11957 15.1951 8.05332 15.3117 8.04272 15.3408C8.03477 15.3726 8.00297 15.4097 7.97382 15.423C7.94732 15.4389 7.92347 15.4786 7.92347 15.5157C7.92347 15.5502 7.91287 15.582 7.89962 15.5873C7.87312 15.5952 7.78567 15.7383 7.72737 15.8629C7.70617 15.9079 7.66907 15.9583 7.64787 15.9795C7.62402 15.998 7.60547 16.0351 7.60547 16.0616C7.60547 16.0881 7.59487 16.1173 7.57897 16.1252C7.56572 16.1332 7.45707 16.3346 7.33782 16.5678C7.21857 16.8036 7.08872 17.058 7.04897 17.1322C7.00922 17.2038 6.96682 17.2939 6.95622 17.331C6.94562 17.3681 6.91382 17.4264 6.88732 17.4608C6.85817 17.4953 6.83697 17.5456 6.83697 17.5721C6.83697 17.6013 6.81312 17.6463 6.78397 17.6755C6.75482 17.7046 6.73097 17.7497 6.73097 17.7735C6.73097 17.8 6.70447 17.8742 6.67532 17.9405C6.64352 18.0067 6.59582 18.1074 6.57197 18.1657C6.54547 18.224 6.50042 18.3274 6.46862 18.3989C6.43947 18.4678 6.41297 18.5367 6.41297 18.5526C6.41297 18.5685 6.39707 18.6189 6.37587 18.6639C6.35732 18.7116 6.32552 18.7832 6.30697 18.8282C6.24867 18.9687 5.99427 19.6948 5.92272 19.928C5.88297 20.0525 5.84057 20.1877 5.82467 20.2327C5.80877 20.2751 5.78492 20.3599 5.77167 20.4182C5.75577 20.4765 5.72132 20.5746 5.69482 20.6382C5.66832 20.6991 5.64447 20.7892 5.64447 20.8369C5.64447 20.882 5.62062 20.9615 5.59147 21.0092C5.55702 21.0622 5.53847 21.1417 5.53847 21.2212C5.53847 21.298 5.51727 21.3775 5.48547 21.4332C5.45632 21.4809 5.43247 21.5657 5.43247 21.624C5.43247 21.6823 5.41392 21.7856 5.38742 21.8545C5.34767 21.9711 5.30527 22.1805 5.24962 22.5515C5.23637 22.631 5.21252 22.7688 5.19662 22.8562C5.17807 22.9437 5.15422 23.0868 5.14097 23.1742C5.12772 23.2617 5.09062 23.5002 5.06147 23.7042C5.02967 23.9083 4.99522 24.2369 4.97932 24.433C4.96607 24.6291 4.94222 24.8676 4.92367 24.963C4.90512 25.069 4.88922 25.6228 4.88392 26.3993C4.87332 27.4354 4.87862 27.7269 4.91307 28.0025C4.93427 28.188 4.96077 28.4795 4.96872 28.6465C4.97932 28.8134 4.99787 29.0042 5.01112 29.0705C5.02437 29.1367 5.05352 29.3381 5.07472 29.521C5.12242 29.9105 5.15157 30.0775 5.20722 30.3292C5.22842 30.4299 5.24697 30.5492 5.24697 30.5942C5.24697 30.6366 5.26552 30.732 5.28672 30.8036C5.30792 30.8751 5.32647 30.9864 5.32647 31.05C5.32647 31.1136 5.35032 31.2117 5.37947 31.27C5.40862 31.3283 5.43247 31.4263 5.43247 31.4952C5.43247 31.5641 5.45367 31.6569 5.48547 31.7125C5.51462 31.7682 5.53847 31.8636 5.53847 31.9245C5.53847 31.9908 5.55967 32.0729 5.59147 32.1233C5.62062 32.171 5.64447 32.2558 5.64447 32.3114C5.64447 32.3671 5.66567 32.4545 5.69482 32.5102C5.72132 32.5632 5.75312 32.6506 5.76107 32.701C5.77167 32.7513 5.79552 32.8361 5.81407 32.8865C5.83262 32.9368 5.88032 33.0746 5.91742 33.1912C5.95452 33.3078 6.04197 33.5649 6.10822 33.761C6.21952 34.0843 6.26722 34.2115 6.37587 34.4685C6.39707 34.5136 6.41297 34.5639 6.41297 34.5825C6.41297 34.5984 6.44477 34.6805 6.48187 34.7627C6.51897 34.8448 6.56402 34.9482 6.58257 34.9932C6.60112 35.0356 6.64352 35.1257 6.67532 35.192C6.70447 35.2582 6.73097 35.3298 6.73097 35.3536C6.73097 35.3775 6.75482 35.4252 6.78132 35.4623C6.81047 35.4967 6.84227 35.5577 6.85022 35.5974C6.86082 35.6345 6.88467 35.6796 6.90587 35.6981C6.92707 35.714 6.94297 35.7432 6.94297 35.7591C6.94297 35.8041 7.54452 36.986 7.69822 37.2457C7.73532 37.304 7.79097 37.3968 7.82277 37.4551C7.85722 37.5107 7.89697 37.577 7.91022 37.6008C7.92612 37.6247 7.97117 37.7015 8.01622 37.7757C8.05862 37.8473 8.10102 37.9135 8.11162 37.9215C8.11957 37.9294 8.16727 38.0036 8.21232 38.0858C8.26002 38.1679 8.31567 38.2501 8.33422 38.266C8.35542 38.2845 8.37397 38.3084 8.37397 38.3216C8.37397 38.3349 8.42167 38.4064 8.47997 38.4833C8.53827 38.5601 8.58597 38.6449 8.58597 38.6688C8.58597 38.6926 8.60717 38.7297 8.63367 38.7483C8.68402 38.788 8.82447 38.9841 8.82447 39.0186C8.82447 39.0318 8.86687 39.0901 8.91987 39.1511C9.00732 39.2518 9.27232 39.591 9.39422 39.7632C9.46312 39.856 9.61947 40.0494 9.64332 40.068C9.65392 40.0759 9.68042 40.1104 9.70427 40.1475C9.87917 40.4204 10.9869 41.6156 11.5937 42.188C11.7395 42.3258 11.9435 42.5166 12.0442 42.612C12.1476 42.7074 12.2562 42.8054 12.288 42.8266C12.3198 42.8478 12.4205 42.9326 12.5133 43.0121C12.7359 43.2109 13.1917 43.5766 13.3931 43.7223C13.4832 43.7859 13.6104 43.884 13.6766 43.9396C13.7455 43.9979 13.8091 44.043 13.8197 44.043C13.8356 44.043 14.0132 44.1702 14.045 44.202C14.0529 44.2099 14.1245 44.2603 14.204 44.3159C14.2835 44.3689 14.3974 44.4458 14.4584 44.4855C14.5776 44.5677 14.5988 44.5809 14.7631 44.6869C14.8267 44.7293 14.9089 44.785 14.946 44.8088C14.9831 44.8353 15.0944 44.9016 15.1924 44.9599C15.2931 45.0155 15.4071 45.0844 15.4442 45.1083C15.4839 45.1321 15.6005 45.201 15.7012 45.262C15.8046 45.3203 15.9344 45.3971 15.9927 45.4342C16.051 45.4713 16.1464 45.5243 16.2047 45.5535C16.263 45.5826 16.3293 45.6171 16.3505 45.6277C16.4936 45.7072 17.058 45.9881 17.3972 46.1471C17.5721 46.2292 17.7629 46.3193 17.8212 46.3485C17.8795 46.3776 17.9458 46.4015 17.967 46.4015C17.9882 46.4015 18.0438 46.4227 18.0862 46.4492C18.1313 46.4757 18.1896 46.5048 18.2187 46.5128C18.2479 46.5234 18.3724 46.5711 18.497 46.6241C18.6189 46.6771 18.7328 46.7195 18.7487 46.7195C18.762 46.7195 18.8362 46.7513 18.9077 46.7857C18.9819 46.8228 19.0588 46.852 19.08 46.852C19.1038 46.852 19.1436 46.8679 19.1727 46.8891C19.2019 46.9076 19.2681 46.9341 19.3185 46.9447C19.3688 46.9553 19.4483 46.9792 19.4907 46.9977C19.5358 47.0163 19.6948 47.0719 19.8485 47.1196C20.0022 47.1673 20.1453 47.215 20.1665 47.223C20.2698 47.2707 20.6382 47.382 20.6832 47.382C20.7124 47.382 20.7892 47.3979 20.8555 47.4191C21.0754 47.4906 21.8254 47.6735 22.2732 47.7636C22.3898 47.7874 22.5753 47.8245 22.684 47.8484C22.7926 47.8696 22.9967 47.904 23.1345 47.9226C23.2723 47.9411 23.4339 47.9703 23.4922 47.9862C23.5505 48.0021 23.7122 48.0206 23.85 48.0312C23.9878 48.0392 24.1733 48.063 24.2607 48.0842C24.3482 48.1028 24.5867 48.1266 24.7907 48.1346C24.9948 48.1452 25.334 48.1717 25.546 48.1955C25.9991 48.2459 27.4354 48.2512 27.8117 48.2061C27.9442 48.1902 28.2702 48.1664 28.5405 48.1505C28.8108 48.1346 29.1208 48.1054 29.2295 48.0842C29.3381 48.063 29.5236 48.0392 29.6402 48.0312C29.7568 48.0233 29.937 47.9994 30.0377 47.9782C30.1411 47.957 30.308 47.9279 30.4087 47.9146C30.5863 47.8934 30.6976 47.8722 31.2832 47.7503C31.7814 47.647 32.436 47.488 32.648 47.4191C32.7142 47.3979 32.7937 47.382 32.8255 47.382C32.8573 47.382 32.9448 47.3581 33.019 47.329C33.0932 47.2998 33.1992 47.2654 33.2522 47.2521C33.3052 47.2389 33.4403 47.1938 33.549 47.1541C33.6576 47.1143 33.8007 47.0666 33.867 47.0481C34.0896 46.9845 34.2512 46.9262 34.3228 46.8891C34.3599 46.8679 34.4076 46.852 34.4288 46.852C34.4473 46.852 34.5242 46.8228 34.5957 46.7857C34.6699 46.7513 34.7415 46.7195 34.7547 46.7195C34.7865 46.7195 35.086 46.5976 35.3351 46.4836C35.4358 46.4386 35.5338 46.4015 35.5524 46.4015C35.5709 46.4015 35.669 46.3617 35.767 46.3114C35.8651 46.2637 36.0797 46.1603 36.2387 46.0835C36.6044 45.9112 36.8959 45.7628 37.2325 45.5826C37.2537 45.572 37.3014 45.5455 37.3358 45.5296C37.3703 45.5111 37.4418 45.4713 37.4948 45.4395C37.5478 45.4104 37.6326 45.36 37.6856 45.3309C37.8632 45.2302 38.1176 45.0765 38.3057 44.9572C38.4091 44.891 38.5204 44.8247 38.5575 44.8062C38.5946 44.7876 38.6767 44.7346 38.7403 44.6922C38.8039 44.6472 38.8755 44.5995 38.8967 44.5862C38.9205 44.5703 38.9868 44.5279 39.0451 44.4855C39.106 44.4458 39.22 44.3689 39.2995 44.3159C39.379 44.2603 39.4505 44.2073 39.4585 44.1967C39.477 44.1755 39.6678 44.043 39.6864 44.043C39.6917 44.043 39.7871 43.9714 39.8984 43.884C40.007 43.7965 40.1077 43.725 40.121 43.725C40.1342 43.725 40.1713 43.6958 40.2058 43.6614C40.2402 43.6269 40.4284 43.4706 40.6245 43.3142C40.8206 43.1552 41.0061 43.0042 41.0352 42.975C41.0644 42.9485 41.1306 42.8929 41.181 42.8558C41.544 42.5802 42.6438 41.4857 43.2745 40.7702C43.3513 40.6828 43.4759 40.545 43.5501 40.4628C43.6243 40.3833 43.7223 40.2641 43.7647 40.2005C43.8098 40.1369 43.8734 40.0547 43.9078 40.0176C43.9873 39.9302 44.4166 39.3657 44.459 39.2915C44.4776 39.2597 44.5332 39.1908 44.5862 39.1352C44.6366 39.0795 44.679 39.0265 44.679 39.0159C44.679 38.9841 44.8221 38.7854 44.8724 38.7483C44.8963 38.7297 44.9175 38.6979 44.9175 38.6767C44.9175 38.6555 44.9572 38.584 45.0049 38.5177C45.05 38.4488 45.103 38.3746 45.1162 38.3481C45.1321 38.3243 45.1692 38.266 45.2037 38.2209C45.2355 38.1759 45.262 38.1308 45.262 38.1229C45.262 38.1149 45.3017 38.0487 45.3494 37.9798C45.3971 37.9109 45.4793 37.7863 45.5296 37.6989C45.7045 37.4021 45.7178 37.3782 45.7416 37.365C45.7522 37.357 45.7761 37.3199 45.792 37.2855C45.8079 37.2484 45.8476 37.1715 45.8847 37.1132C45.9192 37.0549 45.9563 36.9887 45.9642 36.9675C45.9722 36.9463 45.996 36.8986 46.0172 36.8615C46.0358 36.8244 46.0888 36.7184 46.1365 36.623C46.1842 36.5276 46.2319 36.4322 46.2451 36.411C46.2584 36.3898 46.3326 36.2334 46.4147 36.0665C46.4969 35.8995 46.5764 35.7432 46.5896 35.722C46.6029 35.7008 46.6267 35.6531 46.6426 35.616C46.6559 35.5789 46.693 35.502 46.7221 35.4411C46.7486 35.3828 46.7725 35.3218 46.7725 35.3059C46.7725 35.29 46.791 35.2635 46.8122 35.245C46.8334 35.2264 46.852 35.192 46.852 35.1681C46.852 35.1443 46.8758 35.0807 46.905 35.025C46.9341 34.972 46.958 34.9111 46.958 34.8899C46.958 34.8713 46.9818 34.8236 47.011 34.7865C47.0401 34.7494 47.064 34.6964 47.064 34.6699C47.064 34.6434 47.0878 34.5772 47.117 34.5215C47.1461 34.4685 47.17 34.4023 47.17 34.3758C47.17 34.3493 47.1885 34.3016 47.2124 34.2671C47.2362 34.2327 47.2654 34.1691 47.2786 34.1214C47.2892 34.0763 47.3714 33.8246 47.4615 33.5622C47.7318 32.7566 47.753 32.6877 47.753 32.6321C47.753 32.6029 47.7662 32.5658 47.7795 32.5526C47.7954 32.5367 47.8245 32.4439 47.8431 32.3459C47.8643 32.2478 47.8934 32.1551 47.9067 32.1365C47.9199 32.118 47.9385 32.0411 47.9491 31.9616C47.9597 31.8821 47.9835 31.7867 48.0021 31.7496C48.0233 31.7125 48.0471 31.6065 48.0577 31.5138L48.0763 31.3495H43.876C40.5476 31.3495 39.6705 31.3574 39.6493 31.3839C39.636 31.3998 39.6148 31.4528 39.6069 31.5005C39.5963 31.5456 39.5698 31.5986 39.5486 31.6171C39.5274 31.633 39.5115 31.6648 39.5115 31.6887C39.5115 31.7099 39.4797 31.7947 39.4426 31.8768C39.3021 32.1842 39.265 32.2637 39.2412 32.3035C39.2306 32.3247 39.2067 32.3724 39.1908 32.4095C39.1749 32.4466 39.1511 32.4943 39.1378 32.5155C39.1246 32.5367 39.0901 32.6056 39.0636 32.6639C39.0345 32.7248 39 32.7831 38.9841 32.7911C38.9682 32.8017 38.955 32.8308 38.955 32.8573C38.955 32.8838 38.9311 32.9262 38.902 32.9527C38.8728 32.9792 38.849 33.0163 38.849 33.0375C38.849 33.0587 38.8251 33.1091 38.796 33.1515C38.7668 33.1965 38.7218 33.2628 38.6926 33.3052C38.6661 33.3449 38.637 33.4032 38.6264 33.4324C38.6158 33.4642 38.5866 33.5092 38.5575 33.5357C38.5283 33.5622 38.5045 33.594 38.5045 33.6046C38.5045 33.6152 38.4647 33.6815 38.4197 33.7504C38.372 33.8166 38.311 33.9094 38.2845 33.9571C38.258 34.0021 38.2024 34.0816 38.1626 34.132C38.1229 34.1823 38.0752 34.2486 38.0593 34.2804C38.0434 34.3095 37.9506 34.4288 37.8552 34.5454C37.7572 34.6593 37.6697 34.7733 37.6618 34.7971C37.6512 34.821 37.5717 34.9217 37.4842 35.0197C37.3968 35.1178 37.3014 35.2291 37.2722 35.2662C37.0496 35.555 36.2546 36.3447 35.9154 36.6124C35.7829 36.721 35.669 36.8164 35.6637 36.8297C35.6531 36.8588 35.2847 37.153 35.2582 37.153C35.2476 37.153 35.1787 37.2033 35.1045 37.2669C35.0277 37.3305 34.919 37.41 34.8607 37.4445C34.8024 37.4789 34.7441 37.5187 34.7282 37.5346C34.6699 37.5982 34.503 37.7095 34.4659 37.7095C34.4447 37.7095 34.4102 37.7307 34.3917 37.7545C34.3731 37.781 34.3307 37.8181 34.2963 37.8367C34.2645 37.8526 34.2115 37.8844 34.1797 37.9029C34.1452 37.9188 34.0949 37.9559 34.0657 37.9798C34.0366 38.0036 33.9836 38.0381 33.9465 38.054C33.9094 38.0699 33.8272 38.1149 33.761 38.1573C33.6947 38.1997 33.6232 38.2368 33.5993 38.2368C33.5755 38.2395 33.5357 38.2633 33.5119 38.2898C33.4854 38.319 33.4297 38.3508 33.39 38.3587C33.3502 38.3667 33.2946 38.3985 33.2681 38.4276C33.2442 38.4541 33.1965 38.478 33.1647 38.478C33.1329 38.478 33.0852 38.5018 33.0587 38.531C33.0322 38.5601 32.9845 38.584 32.9554 38.584C32.9236 38.584 32.8785 38.6078 32.852 38.637C32.8282 38.6661 32.7805 38.69 32.7487 38.69C32.7169 38.69 32.6718 38.7059 32.6506 38.7271C32.6268 38.7483 32.5738 38.7721 32.5314 38.7801C32.489 38.788 32.436 38.8119 32.4095 38.8357C32.3856 38.8569 32.3406 38.8755 32.3114 38.8755C32.2823 38.8755 32.2134 38.9046 32.1604 38.9417C32.1074 38.9788 32.0305 39.008 31.9881 39.008C31.9484 39.008 31.8927 39.0318 31.8662 39.061C31.8397 39.0901 31.7841 39.114 31.7417 39.114C31.6966 39.114 31.633 39.1378 31.5959 39.167C31.5562 39.1961 31.4873 39.22 31.4316 39.22C31.3786 39.22 31.3071 39.2438 31.27 39.273C31.2329 39.3021 31.1613 39.326 31.1083 39.326C31.0527 39.326 30.9838 39.3498 30.944 39.379C30.9043 39.4108 30.838 39.432 30.7824 39.432C30.7294 39.432 30.6366 39.4558 30.5757 39.4876C30.5147 39.5194 30.4246 39.5433 30.3743 39.5433C30.3266 39.5433 30.2312 39.5671 30.1676 39.5936C30.104 39.6228 29.9847 39.6493 29.9052 39.6546C29.8257 39.6599 29.7462 39.6758 29.7277 39.689C29.68 39.7288 29.407 39.7818 29.354 39.7606C29.3302 39.7526 29.2242 39.7712 29.1182 39.8056C28.9936 39.8427 28.8638 39.8639 28.7392 39.8613C28.6385 39.8613 28.4954 39.8772 28.4212 39.8957C28.196 39.9567 27.9787 39.9673 27.0856 39.9726C26.0972 39.9805 25.5036 39.954 25.3022 39.8984C25.2253 39.8772 25.0796 39.8613 24.9762 39.8613C24.8676 39.8639 24.7245 39.8427 24.6317 39.8162C24.5443 39.7897 24.4012 39.7659 24.3137 39.7606C24.2263 39.7579 24.0964 39.7314 24.0222 39.7023C23.9507 39.6731 23.842 39.6519 23.7837 39.6519C23.7228 39.6519 23.6168 39.6254 23.5479 39.5936C23.4763 39.5645 23.3783 39.538 23.3279 39.538C23.2802 39.538 23.1928 39.5141 23.1345 39.485C23.0762 39.4558 22.9861 39.432 22.9304 39.432C22.8721 39.432 22.8032 39.4081 22.7635 39.379C22.7264 39.3498 22.6548 39.326 22.6018 39.326C22.5462 39.326 22.4773 39.3021 22.4375 39.273C22.4004 39.2438 22.3315 39.22 22.2785 39.22C22.2282 39.22 22.1593 39.1961 22.1195 39.167C22.0824 39.1378 22.0188 39.114 21.9738 39.114C21.9314 39.114 21.8757 39.0901 21.8492 39.061C21.8201 39.0292 21.7671 39.008 21.7167 39.008C21.669 39.008 21.616 38.9894 21.5975 38.9682C21.5789 38.947 21.5153 38.9152 21.4544 38.8967C21.3961 38.8808 21.3272 38.8516 21.3033 38.8304C21.2821 38.8119 21.2238 38.788 21.1788 38.7801C21.1337 38.7695 21.0807 38.7456 21.0648 38.7271C21.0489 38.7059 21.0065 38.69 20.9747 38.69C20.9429 38.69 20.8846 38.6661 20.8475 38.637C20.8104 38.6078 20.7627 38.584 20.7415 38.584C20.7203 38.584 20.6726 38.5601 20.6355 38.531C20.5984 38.5018 20.5507 38.478 20.5269 38.478C20.503 38.478 20.4606 38.4541 20.4315 38.425C20.4023 38.3958 20.3626 38.372 20.344 38.372C20.3255 38.372 20.2698 38.3428 20.2195 38.3057C20.1691 38.2686 20.1161 38.2395 20.1002 38.2395C20.0843 38.2395 20.0101 38.1971 19.9306 38.1467C19.8538 38.0964 19.7796 38.054 19.769 38.054C19.7557 38.054 19.7133 38.0275 19.6709 37.993C19.6312 37.9586 19.5384 37.9029 19.4695 37.8685C19.398 37.8314 19.3291 37.781 19.3158 37.7572C19.3026 37.7307 19.2734 37.7095 19.2522 37.7095C19.2072 37.7095 18.974 37.5558 18.974 37.524C18.974 37.5107 18.9475 37.4922 18.9157 37.4816C18.8653 37.4657 18.6666 37.3279 18.5235 37.2113C18.5023 37.1927 18.383 37.1 18.2585 37.0019C18.1339 36.9065 18.0226 36.8111 18.0067 36.7926C17.9935 36.7767 17.8795 36.6813 17.755 36.5832C17.5191 36.3951 16.6923 35.5815 16.536 35.3801C16.4856 35.3165 16.3823 35.1973 16.3107 35.1151C16.112 34.8925 15.9795 34.7256 15.9795 34.6964C15.9795 34.6832 15.953 34.6461 15.9185 34.6169C15.8867 34.5878 15.8337 34.5295 15.8019 34.4871C15.6535 34.2936 15.635 34.2671 15.635 34.2512C15.635 34.2406 15.6032 34.1929 15.5608 34.1452C15.521 34.1002 15.4548 34.0021 15.4097 33.9332C15.3673 33.8617 15.317 33.7848 15.3037 33.7636C15.2878 33.7398 15.2428 33.6709 15.2057 33.6099C15.1659 33.549 15.1209 33.4933 15.105 33.4827C15.0917 33.4748 15.0785 33.4483 15.0785 33.4244C15.0785 33.4006 15.0626 33.3608 15.0414 33.3396C15.0202 33.3158 14.9672 33.223 14.9221 33.1356C14.8771 33.0455 14.8214 32.958 14.8002 32.9395C14.779 32.9209 14.7605 32.8838 14.7605 32.8573C14.7605 32.8308 14.7472 32.8017 14.7313 32.7911C14.7154 32.7831 14.681 32.7248 14.6545 32.6612C14.628 32.5976 14.5935 32.5393 14.5776 32.5314C14.5617 32.5208 14.5485 32.4916 14.5485 32.4651C14.5485 32.4386 14.5273 32.3883 14.4981 32.3538C14.4716 32.3194 14.4345 32.2452 14.4186 32.1895C14.4001 32.1365 14.3762 32.0915 14.363 32.0915C14.3497 32.0915 14.3312 32.0517 14.3206 32.004C14.3126 31.959 14.2808 31.8901 14.2543 31.8556C14.2252 31.8212 14.204 31.7708 14.204 31.7443C14.204 31.7178 14.1801 31.6569 14.151 31.6092C14.1218 31.5615 14.098 31.4979 14.098 31.4687C14.098 31.4396 14.0741 31.3866 14.045 31.3495C14.0158 31.3124 13.992 31.2541 13.992 31.217C13.992 31.1799 13.9681 31.1136 13.939 31.0712C13.9098 31.0262 13.886 30.9652 13.886 30.9308C13.886 30.899 13.8621 30.8248 13.833 30.7665C13.8038 30.7082 13.78 30.634 13.78 30.6022C13.78 30.5677 13.7561 30.4962 13.727 30.4405C13.6978 30.3875 13.674 30.3133 13.674 30.2736C13.674 30.2365 13.6501 30.157 13.6236 30.096C13.5945 30.0351 13.5653 29.9238 13.5547 29.8522C13.5441 29.778 13.5256 29.7065 13.515 29.6932C13.5017 29.6773 13.4805 29.5899 13.462 29.4945C13.4461 29.3991 13.4143 29.2692 13.3931 29.203C13.3745 29.1367 13.3507 28.9989 13.3401 28.8982C13.3321 28.7949 13.3083 28.6703 13.2897 28.6147C13.2685 28.5617 13.2447 28.408 13.2367 28.2702C13.2261 28.135 13.1996 27.9336 13.1784 27.825C13.1175 27.5229 13.1201 25.2121 13.1811 24.955C13.2049 24.857 13.2288 24.6662 13.2367 24.5284C13.242 24.3906 13.2659 24.2342 13.2871 24.1759C13.3083 24.1203 13.3321 23.9904 13.3401 23.8897C13.3507 23.7864 13.3745 23.6512 13.3931 23.585C13.4143 23.5187 13.4461 23.3889 13.462 23.2935C13.4805 23.1981 13.5017 23.108 13.515 23.0947C13.5256 23.0788 13.5441 23.0073 13.5547 22.9357C13.5653 22.8615 13.5892 22.7661 13.6104 22.7237C13.6289 22.6787 13.6581 22.5912 13.6713 22.525C13.7005 22.3872 13.7667 22.1911 13.8356 22.0268C13.8648 21.9658 13.886 21.8863 13.886 21.8545C13.886 21.8227 13.9098 21.7591 13.939 21.7167C13.9681 21.6717 13.992 21.6081 13.992 21.571C13.992 21.5339 14.0158 21.4756 14.045 21.4385C14.0741 21.4014 14.098 21.3484 14.098 21.3192C14.098 21.2901 14.1218 21.2265 14.151 21.1788C14.1801 21.1311 14.204 21.0701 14.204 21.0436C14.204 21.0171 14.2252 20.9668 14.2517 20.9323C14.2808 20.8979 14.31 20.8316 14.3206 20.7892C14.3312 20.7442 14.355 20.6912 14.3762 20.67C14.3948 20.6488 14.4186 20.6011 14.4292 20.564C14.4398 20.5269 14.4637 20.4792 14.4822 20.458C14.5008 20.4368 14.5246 20.3891 14.5352 20.352C14.5458 20.3149 14.5776 20.2566 14.6041 20.2221C14.6333 20.1877 14.6545 20.14 14.6545 20.1135C14.6545 20.0896 14.6783 20.0472 14.7075 20.0207C14.7366 19.9942 14.7605 19.9518 14.7605 19.928C14.7605 19.9015 14.7764 19.8697 14.7949 19.8538C14.8108 19.8379 14.8665 19.7504 14.9168 19.6577C15.0546 19.398 15.2454 19.0853 15.3329 18.9766C15.362 18.9395 15.4203 18.8521 15.4574 18.7858C15.4972 18.7196 15.5528 18.6427 15.582 18.6162C15.6111 18.5897 15.635 18.5579 15.635 18.5447C15.635 18.5208 15.7171 18.3989 15.794 18.3062C15.8602 18.2267 15.945 18.1233 16.1305 17.8875C16.2286 17.7629 16.316 17.6596 16.3266 17.6543C16.3346 17.6516 16.4114 17.5615 16.4936 17.4555C16.6844 17.2117 17.4608 16.4406 17.7417 16.2153C17.8583 16.1199 17.9829 16.0139 18.02 15.9795C18.1657 15.839 18.2876 15.7383 18.3989 15.6668C18.4599 15.627 18.5341 15.574 18.5632 15.5475C18.648 15.468 18.8627 15.317 18.8865 15.317C18.8998 15.317 18.9554 15.2772 19.0084 15.2269C19.0614 15.1765 19.1489 15.1182 19.2019 15.0917C19.2549 15.0679 19.3185 15.0255 19.3423 15.0016C19.3688 14.9751 19.443 14.9301 19.5093 14.8956C19.5755 14.8638 19.6497 14.8161 19.6762 14.787C19.7027 14.7578 19.7451 14.734 19.769 14.734C19.7928 14.734 19.8352 14.7101 19.8617 14.681C19.8882 14.6518 19.9253 14.628 19.9412 14.628C19.9598 14.628 19.9889 14.6094 20.0075 14.5882C20.026 14.567 20.0631 14.5485 20.0896 14.5485C20.1161 14.5485 20.1691 14.5193 20.2089 14.4822C20.2486 14.4451 20.2963 14.416 20.3175 14.416C20.3387 14.416 20.3864 14.3921 20.4235 14.363C20.4606 14.3338 20.5083 14.31 20.5295 14.31C20.5507 14.31 20.5984 14.2861 20.6355 14.257C20.6726 14.2278 20.7203 14.204 20.7415 14.204C20.7627 14.204 20.8104 14.1801 20.8475 14.151C20.8846 14.1218 20.9403 14.098 20.9668 14.098C20.9959 14.098 21.0489 14.0741 21.086 14.045C21.1231 14.0158 21.1788 13.992 21.2053 13.992C21.2344 13.992 21.2874 13.9681 21.3245 13.939C21.3616 13.9098 21.4173 13.886 21.4491 13.886C21.4782 13.886 21.5339 13.8621 21.571 13.833C21.6081 13.8038 21.6664 13.78 21.7035 13.78C21.7406 13.78 21.7989 13.7561 21.836 13.727C21.8731 13.6978 21.9367 13.674 21.9764 13.674C22.0188 13.674 22.0824 13.6501 22.1195 13.621C22.1566 13.5918 22.2255 13.568 22.2706 13.568C22.3156 13.568 22.3898 13.5441 22.4322 13.515C22.4773 13.4858 22.5488 13.462 22.5912 13.462C22.6363 13.462 22.7078 13.4381 22.7502 13.409C22.7953 13.3798 22.8695 13.356 22.9172 13.356C22.9649 13.356 23.0603 13.3295 23.1292 13.3003C23.1981 13.2685 23.3067 13.2394 23.3703 13.2341C23.4339 13.2288 23.5002 13.2155 23.5161 13.2023C23.5691 13.1625 23.7705 13.1148 23.8208 13.1307C23.8473 13.1387 23.9242 13.1201 23.9931 13.0883C24.0699 13.0565 24.1865 13.0327 24.2952 13.0274C24.3932 13.0221 24.5337 12.9982 24.6052 12.9744C24.6821 12.9479 24.8384 12.924 24.9762 12.9187C25.1087 12.9161 25.2995 12.8922 25.4002 12.8657C25.5645 12.826 25.7421 12.8207 26.871 12.8207C28.0555 12.8233 28.1721 12.826 28.355 12.8737C28.4689 12.9028 28.6438 12.9267 28.7657 12.9267C28.8982 12.9267 29.0228 12.9452 29.097 12.9717C29.1632 12.9956 29.2931 13.0194 29.3885 13.0247C29.4839 13.03 29.6137 13.0539 29.68 13.0777C29.7462 13.1016 29.8522 13.1254 29.9185 13.1281C29.9847 13.1334 30.0854 13.1546 30.1437 13.1784C30.202 13.1996 30.2974 13.2235 30.3557 13.2314C30.414 13.2367 30.52 13.2685 30.5863 13.3003C30.6552 13.3295 30.7506 13.356 30.7983 13.356C30.846 13.356 30.9228 13.3798 30.9652 13.409C31.0103 13.4381 31.0818 13.462 31.1242 13.462C31.1693 13.462 31.2408 13.4858 31.2832 13.515C31.3283 13.5441 31.3998 13.568 31.4449 13.568C31.4899 13.568 31.5588 13.5918 31.5959 13.621C31.633 13.6501 31.6966 13.674 31.7417 13.674C31.7841 13.674 31.8397 13.6978 31.8662 13.727C31.8927 13.7561 31.9484 13.78 31.9908 13.78C32.0358 13.78 32.0994 13.8038 32.1365 13.833C32.1736 13.8621 32.2319 13.886 32.2637 13.886C32.2955 13.886 32.3538 13.9098 32.3909 13.939C32.428 13.9681 32.481 13.992 32.5102 13.992C32.5367 13.992 32.5923 14.0158 32.6294 14.045C32.6665 14.0741 32.7222 14.098 32.7513 14.098C32.7831 14.098 32.8308 14.1218 32.86 14.151C32.8891 14.1801 32.9368 14.204 32.966 14.204C32.9951 14.204 33.0402 14.2278 33.064 14.257C33.0905 14.2861 33.1382 14.31 33.17 14.31C33.2045 14.31 33.2522 14.3338 33.276 14.363C33.3025 14.3921 33.3423 14.416 33.3635 14.416C33.3873 14.416 33.4456 14.4451 33.496 14.4822C33.5463 14.5193 33.5993 14.5485 33.6152 14.5485C33.6311 14.5485 33.7053 14.5909 33.7848 14.6412C33.8617 14.6916 33.9385 14.734 33.9571 14.734C33.9756 14.734 34.0127 14.7578 34.0366 14.7843C34.0631 14.8135 34.1479 14.8691 34.23 14.9089C34.3095 14.9513 34.3864 15.0043 34.3996 15.0308C34.4129 15.0573 34.442 15.0785 34.4632 15.0785C34.5109 15.0785 34.6938 15.203 34.7229 15.2534C34.7335 15.2746 34.7547 15.2905 34.7706 15.2905C34.8077 15.2905 35.1469 15.5316 35.1867 15.5873C35.2052 15.6138 35.237 15.635 35.2529 15.635C35.2874 15.635 35.6769 15.945 35.6902 15.9821C35.6955 15.9954 35.7882 16.0722 35.8969 16.1544C36.1221 16.324 37.0072 17.1826 37.1662 17.3866C37.2245 17.4635 37.3173 17.5721 37.3729 17.6331C37.4259 17.6914 37.516 17.8 37.5717 17.8689C37.6247 17.9405 37.7439 18.0915 37.834 18.2081C37.9241 18.3221 38.0195 18.4493 38.046 18.489C38.0699 18.5314 38.1308 18.6109 38.1785 18.6692C38.2236 18.7275 38.2766 18.807 38.2898 18.8415C38.3057 18.8786 38.3614 18.9607 38.4091 19.027C38.4594 19.0932 38.5018 19.1568 38.5018 19.1701C38.5045 19.1807 38.5336 19.2257 38.5707 19.2708C38.6078 19.3132 38.637 19.3635 38.637 19.3821C38.637 19.4006 38.6608 19.4377 38.69 19.4642C38.7191 19.4907 38.743 19.5278 38.743 19.5437C38.743 19.5623 38.7668 19.6073 38.796 19.6444C38.8251 19.6815 38.849 19.7292 38.849 19.7504C38.849 19.769 38.8728 19.8087 38.902 19.8352C38.9311 19.8617 38.955 19.9041 38.955 19.928C38.955 19.9518 38.9788 19.9942 39.008 20.0207C39.0371 20.0472 39.061 20.0949 39.061 20.1267C39.061 20.1585 39.0848 20.2062 39.1113 20.2301C39.1405 20.2566 39.1723 20.3122 39.1802 20.352C39.1882 20.3944 39.2147 20.4421 39.2359 20.4606C39.2571 20.4765 39.273 20.5057 39.273 20.5216C39.273 20.5375 39.3048 20.609 39.3392 20.6832C39.3763 20.7548 39.4055 20.829 39.4055 20.8449C39.4055 20.8608 39.4214 20.8899 39.4426 20.9058C39.4638 20.9244 39.4876 20.98 39.4982 21.033C39.5088 21.086 39.538 21.1602 39.5671 21.1947C39.5936 21.2318 39.6175 21.2821 39.6175 21.3113C39.6175 21.3616 39.689 21.4888 39.7367 21.5233C39.75 21.5339 41.6262 21.5445 43.8999 21.5445C48.3863 21.5445 48.1346 21.5524 48.0206 21.4067C47.9915 21.3722 47.965 21.2795 47.957 21.1894C47.9464 21.1046 47.9279 21.0198 47.912 21.0012C47.8961 20.98 47.8643 20.8846 47.8431 20.7866C47.8245 20.6885 47.7954 20.5958 47.7795 20.5799C47.7662 20.5666 47.753 20.5295 47.753 20.5004C47.753 20.4474 47.5887 19.928 47.3926 19.3715C47.329 19.1886 47.276 19.0243 47.276 19.0058C47.276 18.9872 47.2521 18.9263 47.2256 18.8733C47.1488 18.7222 47.0905 18.5791 47.0905 18.5367C47.0905 18.5155 47.0613 18.4413 47.0269 18.3724C46.9924 18.3009 46.9394 18.1922 46.9103 18.126C46.8811 18.0597 46.8334 17.9511 46.8016 17.8848C46.7698 17.8186 46.746 17.7444 46.746 17.7205C46.746 17.6967 46.7354 17.6728 46.7221 17.6649C46.7089 17.6569 46.6665 17.5801 46.6267 17.4979C46.587 17.4131 46.4651 17.164 46.3538 16.9467C46.2451 16.7268 46.1073 16.4565 46.0517 16.3452C45.996 16.2339 45.9377 16.1332 45.9245 16.1252C45.9086 16.1173 45.898 16.0855 45.898 16.059C45.898 16.0325 45.8768 15.9901 45.8529 15.9636C45.8264 15.9397 45.7867 15.8867 45.7655 15.8443C45.6144 15.5634 45.4263 15.2613 45.1798 14.9009C45.1374 14.84 45.103 14.7843 45.103 14.7764C45.103 14.7684 45.0553 14.6916 44.997 14.6094C44.9387 14.5246 44.891 14.4451 44.891 14.4319C44.891 14.416 44.8433 14.3497 44.785 14.2808C44.7267 14.2119 44.679 14.143 44.679 14.1324C44.679 14.1192 44.6578 14.0847 44.6313 14.0556C44.5624 13.9787 44.459 13.8462 44.414 13.78C44.3928 13.7482 44.3398 13.674 44.2947 13.621C44.2523 13.5653 44.1569 13.4408 44.0827 13.3427C44.0112 13.2447 43.9211 13.1307 43.884 13.0883C43.8469 13.0459 43.7939 12.9797 43.7647 12.9426C43.7356 12.9028 43.6534 12.8048 43.5792 12.72C43.5077 12.6378 43.3884 12.4974 43.3142 12.4126C43.0307 12.076 42.0793 11.1114 41.5387 10.6106C41.0617 10.168 41.075 10.1786 40.1634 9.46049C40.1369 9.43929 40.0759 9.38894 40.0309 9.35184C39.9858 9.31474 39.856 9.22199 39.7447 9.14514C39.6307 9.06829 39.538 8.99409 39.538 8.98084C39.538 8.96759 39.5274 8.95699 39.5141 8.95699C39.4903 8.95699 39.1908 8.76354 39.1113 8.69729C39.0451 8.64164 38.7112 8.42699 38.69 8.42699C38.6767 8.42699 38.6078 8.37929 38.5336 8.32099C38.4594 8.26269 38.3826 8.21499 38.3614 8.21499C38.3402 8.21499 38.3163 8.20439 38.3084 8.19114C38.2819 8.15139 37.8446 7.88639 37.5505 7.73534C37.4551 7.68499 37.3729 7.63729 37.365 7.62669C37.357 7.61609 37.3093 7.58959 37.259 7.56574C37.1238 7.50214 37.0125 7.44649 36.9675 7.41999C36.8747 7.36434 36.3288 7.10199 36.305 7.10199C36.2917 7.10199 36.2785 7.08874 36.2785 7.07549C36.2785 7.05959 36.2626 7.04899 36.2467 7.04899C36.2281 7.04899 36.1062 6.99599 35.9737 6.93239C35.5868 6.74689 35.4941 6.70449 35.4543 6.70449C35.4331 6.70449 35.3881 6.68064 35.351 6.65149C35.3139 6.62234 35.2635 6.59849 35.2344 6.59849C35.2079 6.59849 35.1416 6.57729 35.0886 6.54814C35.0356 6.52164 34.9508 6.48454 34.9005 6.46599C34.8501 6.45009 34.76 6.41564 34.7017 6.39709C34.6434 6.37589 34.5613 6.34144 34.5162 6.32289C34.3731 6.25664 33.9942 6.12414 33.7557 6.05789C33.6894 6.03669 33.6205 6.01284 33.6046 6.00489C33.5887 5.99429 33.5198 5.97044 33.4509 5.94924C33.3794 5.93069 33.2416 5.88829 33.1382 5.85649C32.648 5.71074 31.8556 5.50669 31.482 5.43249C31.4025 5.41659 31.2461 5.37949 31.1375 5.35299C31.0288 5.32649 30.8698 5.29734 30.785 5.28939C30.7029 5.27879 30.5836 5.25494 30.52 5.23374C30.4591 5.21254 30.3557 5.19399 30.2895 5.19399C30.2232 5.19134 30.0881 5.17544 29.9847 5.15159C29.884 5.13039 29.6694 5.10124 29.5077 5.08799C29.3487 5.07474 29.1102 5.04559 28.9777 5.02439C28.5988 4.96079 26.2032 4.86539 26.1555 4.91044ZM27.1572 5.97309C27.2022 5.99694 27.2632 6.01549 27.2923 6.01549C27.3215 6.01549 27.3798 6.04464 27.4222 6.08174C27.4672 6.11884 27.5149 6.14799 27.5282 6.14799C27.5706 6.14799 27.8515 6.42889 27.8515 6.47129C27.8515 6.49249 27.8753 6.53224 27.9045 6.55874C27.9336 6.58524 27.9575 6.63294 27.9575 6.66209C27.9575 6.69389 27.9813 6.75219 28.0105 6.79724C28.0555 6.86614 28.0635 6.92179 28.0635 7.18149C28.0635 7.39879 28.0529 7.50214 28.0264 7.53924C28.0078 7.56839 27.9813 7.62934 27.9734 7.67439C27.9628 7.72209 27.931 7.78039 27.9018 7.80689C27.8753 7.83074 27.8515 7.86784 27.8515 7.88374C27.8515 7.95529 27.56 8.20704 27.3612 8.30774L27.1572 8.41374H26.7941C26.5026 8.41374 26.4178 8.40314 26.3542 8.36604C26.3118 8.34219 26.2668 8.32099 26.2562 8.32099C26.2138 8.32099 25.9541 8.13549 25.8719 8.05069C25.7527 7.92349 25.6838 7.80689 25.5778 7.53924C25.5062 7.36699 25.5115 6.91119 25.5804 6.80784C25.6069 6.77339 25.6255 6.72834 25.6255 6.70979C25.6255 6.60644 25.9912 6.14799 26.0733 6.14799C26.0919 6.14799 26.1422 6.11884 26.1873 6.08174C26.2297 6.04464 26.2906 6.01549 26.3251 6.01549C26.3569 6.01549 26.4072 5.99959 26.4364 5.97839C26.5106 5.92539 26.6113 5.91214 26.8604 5.92274C26.9902 5.92539 27.1042 5.94659 27.1572 5.97309ZM13.4037 12.0098C13.6766 12.1264 13.9522 12.3887 14.0768 12.6564C14.1616 12.8339 14.1642 12.8498 14.1642 13.1837C14.1616 13.5097 14.1589 13.5362 14.0874 13.674C14.045 13.7535 13.9787 13.8595 13.9416 13.9098C13.8409 14.045 13.6395 14.2305 13.5971 14.2305C13.5759 14.2305 13.5388 14.2464 13.5176 14.2676C13.4938 14.2888 13.3931 14.3365 13.2924 14.3736C13.083 14.4531 12.7862 14.4663 12.6219 14.4054C12.5663 14.3842 12.4894 14.3603 12.4497 14.3524C12.2854 14.3153 11.9462 14.0291 11.8057 13.8091C11.5884 13.462 11.5699 12.9002 11.7713 12.6087C11.7978 12.5716 11.819 12.5292 11.819 12.5159C11.819 12.4709 12.0628 12.2165 12.1847 12.1343C12.4152 11.978 12.5928 11.9276 12.9134 11.925C13.1758 11.925 13.2129 11.9303 13.4037 12.0098ZM41.0273 11.9886C41.12 12.023 41.2499 12.0866 41.3188 12.1343C41.4566 12.2271 41.6845 12.4682 41.6845 12.5212C41.6845 12.5398 41.7004 12.5689 41.7216 12.5848C41.7931 12.6458 41.87 12.9558 41.87 13.1837C41.87 13.4037 41.8011 13.666 41.7216 13.7561C41.7004 13.7773 41.6845 13.8118 41.6845 13.8277C41.6845 13.886 41.3214 14.2172 41.1783 14.2888C40.7305 14.5087 40.3648 14.4955 39.9381 14.2411C39.6943 14.098 39.5486 13.9363 39.424 13.674C39.3631 13.5441 39.3551 13.4911 39.3498 13.1837C39.3445 12.8737 39.3498 12.8286 39.4002 12.7279C39.432 12.667 39.4585 12.5981 39.4585 12.5769C39.4585 12.5557 39.5459 12.4497 39.6519 12.3384C39.7924 12.1926 39.8904 12.1158 40.0282 12.0495C40.2853 11.925 40.2614 11.9303 40.5768 11.9276C40.8153 11.925 40.8895 11.9356 41.0273 11.9886ZM7.60282 25.2439C7.81217 25.3287 8.01622 25.4771 8.15137 25.644C8.37397 25.917 8.43757 26.1131 8.42167 26.4814C8.40842 26.8365 8.32097 27.0379 8.06127 27.3003C7.96322 27.3983 7.87047 27.4805 7.85457 27.4805C7.83867 27.4805 7.79627 27.5017 7.76182 27.5282C7.64787 27.6156 7.36432 27.6925 7.16292 27.6925C6.96682 27.6925 6.66737 27.613 6.54547 27.5255C6.51102 27.5017 6.46862 27.4805 6.45537 27.4805C6.41297 27.4805 6.07112 27.1121 6.01812 27.0088C5.79552 26.5742 5.84852 26.023 6.14532 25.6546C6.26722 25.5062 6.48982 25.3393 6.69122 25.2492C6.83167 25.1882 6.88467 25.1776 7.14437 25.1776C7.40142 25.175 7.45972 25.1829 7.60282 25.2439ZM13.3268 38.4806C13.5971 38.5999 13.6422 38.6317 13.8144 38.8013C13.939 38.9258 14.0185 39.0345 14.0794 39.159C14.1616 39.3339 14.1642 39.3498 14.1642 39.6837C14.1616 40.0229 14.1616 40.0309 14.0715 40.2111C13.9761 40.4072 13.727 40.6775 13.5839 40.7437C13.5388 40.7649 13.4832 40.7941 13.462 40.8073C13.3083 40.9001 13.1758 40.9292 12.8922 40.9292C12.667 40.9266 12.5822 40.916 12.5212 40.8815C12.4788 40.8577 12.4285 40.8365 12.4099 40.8365C12.3092 40.8365 11.9329 40.5079 11.8057 40.3091C11.5884 39.962 11.5699 39.4002 11.7713 39.1087C11.7978 39.0716 11.819 39.0292 11.819 39.0159C11.8243 38.9417 12.2854 38.531 12.3649 38.531C12.3834 38.531 12.447 38.5071 12.5106 38.478C12.6802 38.4011 13.1572 38.4011 13.3268 38.4806ZM40.9928 38.478C41.0564 38.5071 41.12 38.531 41.1359 38.531C41.1836 38.531 41.438 38.7112 41.5202 38.8092C41.6527 38.9576 41.7746 39.167 41.8249 39.3286C41.923 39.6519 41.8567 40.1077 41.6712 40.3489C41.5255 40.5397 41.1757 40.8365 41.0935 40.8365C41.075 40.8365 41.0273 40.8577 40.9822 40.8815C40.9213 40.916 40.8365 40.9266 40.6112 40.9292C40.3277 40.9292 40.1952 40.9001 40.0415 40.8073C40.0203 40.7941 39.9673 40.7649 39.9222 40.7437C39.742 40.6563 39.5459 40.4337 39.4187 40.166C39.3604 40.0388 39.3525 39.9911 39.3525 39.6811C39.3498 39.3525 39.3525 39.3339 39.432 39.1564C39.5194 38.9629 39.7526 38.6926 39.8957 38.6158C40.174 38.4647 40.3144 38.4276 40.598 38.4276C40.8206 38.4276 40.9001 38.4356 40.9928 38.478ZM27.1863 44.6578C27.2817 44.6896 27.4036 44.7426 27.454 44.7717C27.5838 44.8539 27.825 45.0738 27.825 45.1136C27.825 45.1321 27.8541 45.1745 27.8912 45.209C27.9283 45.2434 27.9575 45.2991 27.9575 45.3362C27.9575 45.3706 27.9813 45.4342 28.0131 45.4766C28.0635 45.5482 28.0661 45.5853 28.0582 45.8821C28.0529 46.1497 28.0423 46.2213 28.0052 46.261C27.9787 46.2902 27.9575 46.3326 27.9575 46.3538C27.9575 46.428 27.8303 46.6241 27.7004 46.7513C27.6315 46.8202 27.4778 46.9262 27.3612 46.9871L27.1492 47.0984H26.8047C26.4973 47.0958 26.447 47.0905 26.3277 47.0322C25.9011 46.8281 25.6785 46.5658 25.5407 46.11C25.5036 45.9854 25.5274 45.572 25.5778 45.4952C25.599 45.4607 25.6255 45.3998 25.6361 45.3574C25.6599 45.262 25.7315 45.1613 25.909 44.9811C26.068 44.8194 26.2138 44.7214 26.3569 44.6816C26.4125 44.6657 26.4788 44.6419 26.5 44.626C26.5768 44.5756 27.0008 44.5942 27.1863 44.6578Z" fill="black"/>
<path d="M26.0892 13.303C26.0309 13.3162 25.7871 13.3401 25.546 13.356C25.3048 13.3719 25.0398 13.4037 24.955 13.4249C24.8702 13.4487 24.7165 13.4726 24.6105 13.4805C24.5045 13.4858 24.3508 13.515 24.266 13.5441C24.1839 13.5706 24.0673 13.5945 24.0063 13.5945C23.948 13.5945 23.8685 13.6104 23.8288 13.6316C23.789 13.6528 23.6777 13.6793 23.5797 13.6952C23.4816 13.7111 23.373 13.7429 23.3412 13.7641C23.3094 13.7879 23.2325 13.8065 23.1742 13.8065C23.1133 13.8065 23.0338 13.8277 22.9887 13.8595C22.9463 13.8886 22.8668 13.9125 22.8138 13.9125C22.7582 13.9125 22.6893 13.9337 22.6495 13.9655C22.6124 13.9946 22.5462 14.0185 22.4985 14.0185C22.4508 14.0185 22.3845 14.0423 22.3474 14.0715C22.3103 14.1006 22.2414 14.1245 22.1937 14.1245C22.146 14.1245 22.0771 14.1483 22.04 14.1775C22.0029 14.2066 21.9579 14.2305 21.9367 14.2305C21.9155 14.2305 21.8545 14.2543 21.7962 14.2835C21.7379 14.3126 21.6664 14.3365 21.6346 14.3365C21.6054 14.3365 21.5577 14.3603 21.5312 14.3895C21.5047 14.4186 21.457 14.4425 21.4252 14.4425C21.3934 14.4425 21.3351 14.4663 21.298 14.4955C21.2609 14.5246 21.2212 14.5485 21.2079 14.5485C21.1735 14.5485 20.6461 14.8161 20.6276 14.8426C20.6196 14.8559 20.5905 14.8665 20.564 14.8665C20.5375 14.8665 20.4977 14.8824 20.4765 14.9036C20.4553 14.9248 20.397 14.9645 20.344 14.991C20.2619 15.0334 20.1585 15.0944 19.8087 15.3037C19.761 15.3329 19.6656 15.3965 19.5994 15.4415C19.5305 15.4892 19.4563 15.529 19.4351 15.529C19.4165 15.529 19.398 15.5422 19.398 15.5555C19.398 15.5714 19.3105 15.6376 19.2072 15.7065C19.1012 15.7754 18.9554 15.8788 18.8812 15.9397C18.8097 16.0007 18.701 16.0828 18.6427 16.1199C18.5844 16.157 18.4917 16.2286 18.436 16.2816C18.383 16.3319 18.2346 16.4618 18.1074 16.5678C17.641 16.9547 17.2859 17.3071 16.9573 17.702C16.8805 17.7947 16.7983 17.8928 16.7745 17.9166C16.6155 18.0862 16.4989 18.2214 16.4459 18.3062C16.4114 18.3592 16.3505 18.4413 16.3081 18.4864C16.2657 18.5314 16.1968 18.6215 16.1517 18.6851C16.1093 18.7487 16.0298 18.8574 15.9742 18.9236C15.9185 18.9925 15.8735 19.0588 15.8708 19.0694C15.8708 19.0826 15.8284 19.1462 15.7781 19.2125C15.7304 19.2787 15.6774 19.3556 15.6641 19.3847C15.6509 19.4139 15.5979 19.504 15.5449 19.5835C15.4919 19.663 15.4495 19.7425 15.4495 19.7584C15.4495 19.7743 15.4256 19.8087 15.3965 19.8352C15.3673 19.8617 15.3435 19.9041 15.3435 19.928C15.3435 19.9545 15.3249 19.9889 15.3011 20.0101C15.2772 20.0287 15.2401 20.0896 15.2189 20.1453C15.1977 20.2009 15.1686 20.246 15.158 20.246C15.1474 20.246 15.1288 20.2778 15.1182 20.3175C15.1103 20.3546 15.0785 20.4182 15.0493 20.4527C15.0228 20.4898 14.999 20.5348 14.999 20.556C14.999 20.5772 14.9751 20.6249 14.946 20.662C14.9168 20.6991 14.893 20.7574 14.893 20.7892C14.893 20.821 14.8691 20.8687 14.84 20.8952C14.8108 20.9217 14.787 20.9694 14.787 20.9986C14.787 21.0304 14.7631 21.0834 14.734 21.1205C14.7048 21.1576 14.681 21.2079 14.681 21.2344C14.681 21.2609 14.6598 21.3272 14.6306 21.3802C14.514 21.6134 14.469 21.7194 14.469 21.7671C14.469 21.7936 14.4478 21.8545 14.4186 21.8996C14.3921 21.9446 14.3603 22.0294 14.3497 22.0877C14.3391 22.146 14.3153 22.2123 14.2967 22.2335C14.2782 22.2547 14.2543 22.3289 14.2464 22.3951C14.2358 22.464 14.2119 22.5409 14.1907 22.5674C14.1695 22.5965 14.151 22.6522 14.151 22.6972C14.151 22.7396 14.1271 22.8297 14.098 22.8933C14.0688 22.9569 14.045 23.0364 14.045 23.0709C14.045 23.1053 14.0158 23.2246 13.9787 23.3359C13.9416 23.4472 13.9125 23.5797 13.9125 23.63C13.9125 23.6777 13.8886 23.7864 13.8595 23.8685C13.8303 23.9533 13.8065 24.0752 13.8065 24.1415C13.8065 24.2104 13.7826 24.3588 13.7561 24.4754C13.727 24.5893 13.6978 24.8278 13.6899 25.0027C13.6819 25.1776 13.6581 25.44 13.6342 25.5831C13.5812 25.9382 13.5812 26.8498 13.6342 27.2049C13.6581 27.348 13.6819 27.6103 13.6899 27.7852C13.6978 27.9601 13.727 28.1986 13.7561 28.3126C13.7826 28.4292 13.8065 28.5776 13.8065 28.6465C13.8065 28.7127 13.8303 28.8346 13.8595 28.9194C13.8886 29.0016 13.9125 29.1102 13.9125 29.1579C13.9125 29.2083 13.9416 29.3408 13.9787 29.4521C14.0158 29.5634 14.045 29.6826 14.045 29.7171C14.045 29.7515 14.0688 29.831 14.098 29.8946C14.1271 29.9582 14.151 30.0404 14.151 30.0775C14.151 30.1146 14.1748 30.1914 14.204 30.2497C14.2331 30.308 14.257 30.3902 14.257 30.4379C14.257 30.4829 14.2729 30.5359 14.2941 30.5518C14.3153 30.5704 14.3418 30.634 14.3497 30.6949C14.3603 30.7559 14.3921 30.8433 14.4186 30.8884C14.4451 30.9334 14.469 30.9944 14.469 31.0209C14.469 31.0686 14.514 31.1746 14.6306 31.4078C14.6598 31.4608 14.681 31.527 14.681 31.5562C14.681 31.5827 14.7048 31.6304 14.734 31.6622C14.7631 31.694 14.787 31.747 14.787 31.7814C14.787 31.8159 14.8108 31.8662 14.84 31.8927C14.8691 31.9192 14.893 31.9669 14.893 31.9961C14.893 32.0279 14.9142 32.0835 14.938 32.118C14.9645 32.1551 15.0228 32.2637 15.0705 32.3618C15.1182 32.4598 15.1686 32.5446 15.1818 32.5526C15.1951 32.5632 15.2136 32.6029 15.2242 32.6453C15.2322 32.6877 15.264 32.7434 15.2931 32.7699C15.3196 32.7937 15.3435 32.8361 15.3435 32.86C15.3435 32.8838 15.3673 32.9262 15.3965 32.9527C15.4256 32.9792 15.4495 33.0163 15.4495 33.0349C15.4495 33.0534 15.4972 33.1382 15.5555 33.2204C15.6138 33.3052 15.6615 33.3873 15.6615 33.4059C15.6615 33.4244 15.6774 33.4509 15.6959 33.4615C15.7383 33.4907 15.8735 33.6894 15.8735 33.7265C15.8735 33.7451 15.8947 33.7742 15.9212 33.7928C15.9477 33.8113 16.0113 33.8935 16.0643 33.973C16.1173 34.0525 16.2259 34.2009 16.3081 34.3016C16.3902 34.4023 16.475 34.5162 16.4962 34.5533C16.5148 34.5904 16.5545 34.6408 16.581 34.6646C16.6075 34.6858 16.7294 34.8236 16.854 34.9667C17.2409 35.4172 17.6251 35.8121 17.861 36.0029C17.9113 36.0453 17.967 36.093 17.9802 36.1115C17.9961 36.1301 18.0438 36.1725 18.0889 36.2043C18.1339 36.2387 18.2558 36.3421 18.3592 36.4348C18.4652 36.5276 18.6189 36.6495 18.701 36.7078C18.7858 36.7687 18.9077 36.8615 18.9713 36.9171C19.0349 36.9754 19.0985 37.0205 19.1118 37.0205C19.1277 37.0205 19.2098 37.0735 19.2946 37.1397C19.3821 37.206 19.4563 37.259 19.4642 37.259C19.4828 37.259 19.7133 37.4206 19.7292 37.4471C19.7398 37.4604 19.7663 37.471 19.7928 37.471C19.8193 37.471 19.8617 37.4948 19.8882 37.524C19.9147 37.5531 19.9492 37.577 19.9677 37.577C19.9863 37.577 20.0207 37.6008 20.0472 37.63C20.0737 37.6591 20.1161 37.683 20.14 37.683C20.1638 37.683 20.2062 37.7068 20.2327 37.736C20.2592 37.7651 20.2937 37.789 20.3122 37.789C20.3281 37.789 20.3811 37.8181 20.4315 37.8552C20.4818 37.8923 20.5375 37.9215 20.5587 37.9215C20.5799 37.9215 20.6249 37.9453 20.662 37.9745C20.6991 38.0036 20.7468 38.0275 20.768 38.0275C20.7892 38.0275 20.8369 38.0513 20.874 38.0805C20.9111 38.1096 20.9641 38.1335 20.988 38.1335C21.0145 38.1335 21.0489 38.152 21.0675 38.1732C21.086 38.1944 21.1205 38.213 21.1443 38.213C21.1708 38.213 21.2291 38.2421 21.2795 38.2792C21.3298 38.3163 21.3961 38.3455 21.4279 38.3455C21.4597 38.3455 21.4994 38.3614 21.5153 38.3826C21.5312 38.4011 21.5922 38.425 21.6478 38.4356C21.7035 38.4435 21.7644 38.4674 21.7803 38.4886C21.7962 38.5071 21.8466 38.531 21.8916 38.5416C21.9367 38.5495 22.0029 38.5813 22.04 38.6105C22.0771 38.6396 22.146 38.6635 22.1937 38.6635C22.2414 38.6635 22.3103 38.6873 22.3474 38.7165C22.3845 38.7456 22.4534 38.7695 22.5038 38.7695C22.5515 38.7695 22.6204 38.7933 22.6575 38.8225C22.6972 38.8543 22.7661 38.8755 22.8244 38.8755C22.8854 38.8755 22.9543 38.8967 22.994 38.9285C23.0364 38.9603 23.1027 38.9815 23.1663 38.9815C23.2219 38.9815 23.3147 39.0053 23.373 39.0345C23.4313 39.0636 23.5161 39.0875 23.5638 39.0875C23.6115 39.0901 23.6989 39.1087 23.7572 39.1299C23.8155 39.1537 23.9507 39.1829 24.0593 39.1961C24.168 39.2094 24.2713 39.2332 24.2925 39.2518C24.3137 39.2677 24.4409 39.2915 24.5761 39.3021C24.7139 39.3127 24.8888 39.3392 24.9656 39.3631C25.0451 39.3843 25.2518 39.4081 25.4267 39.4187C25.6016 39.4267 25.8746 39.4532 26.0336 39.4744C26.4152 39.5221 27.3003 39.5221 27.6819 39.4744C27.8409 39.4532 28.1138 39.4267 28.2887 39.4187C28.4636 39.4081 28.6703 39.3843 28.7498 39.3604C28.8293 39.3392 28.9963 39.3127 29.1208 39.2995C29.2454 39.2889 29.3964 39.2597 29.4547 39.2385C29.513 39.2147 29.6111 39.1961 29.6747 39.1935C29.7356 39.1935 29.8284 39.1749 29.8814 39.1537C29.9317 39.1325 30.0457 39.1034 30.1358 39.0875C30.2259 39.0689 30.3319 39.0398 30.3743 39.0186C30.414 38.9974 30.4909 38.9815 30.5465 38.9815C30.6048 38.9815 30.6737 38.9576 30.7135 38.9285C30.7532 38.8967 30.8221 38.8755 30.8804 38.8755C30.9414 38.8755 31.0103 38.8543 31.05 38.8225C31.0871 38.7933 31.156 38.7695 31.2037 38.7695C31.2514 38.7695 31.3203 38.7456 31.3574 38.7165C31.3945 38.6873 31.4608 38.6635 31.5085 38.6635C31.5535 38.6635 31.6357 38.6343 31.6887 38.5972C31.7417 38.5601 31.8079 38.531 31.8371 38.531C31.8662 38.531 31.9086 38.5124 31.9298 38.4939C31.9537 38.4727 32.0146 38.4462 32.065 38.4382C32.1153 38.4303 32.1763 38.4038 32.2001 38.3826C32.2213 38.364 32.2664 38.3455 32.2955 38.3455C32.3247 38.3455 32.3777 38.3243 32.4121 38.2978C32.481 38.2448 32.6771 38.1494 32.7725 38.1229C32.8017 38.1123 32.8441 38.0884 32.86 38.0672C32.8785 38.046 32.913 38.0275 32.9395 38.0275C32.9633 38.0275 33.0163 38.0036 33.0534 37.9745C33.0905 37.9453 33.1356 37.9215 33.1568 37.9215C33.1753 37.9215 33.2257 37.8923 33.2681 37.8552C33.3105 37.8181 33.3661 37.789 33.39 37.789C33.4138 37.789 33.4562 37.7651 33.4827 37.736C33.5092 37.7068 33.5516 37.683 33.5781 37.683C33.6046 37.683 33.6311 37.6724 33.6417 37.6591C33.6629 37.6247 33.8908 37.471 33.92 37.471C33.9332 37.471 34.0074 37.4233 34.0843 37.365C34.1611 37.3067 34.2353 37.259 34.2459 37.259C34.2565 37.259 34.3281 37.2113 34.4023 37.1503C34.4765 37.092 34.5745 37.0258 34.6169 37.0019C34.662 36.9807 34.7706 36.8986 34.8634 36.8191C34.9561 36.7422 35.0674 36.6601 35.1098 36.6362C35.1549 36.615 35.1999 36.5806 35.2105 36.562C35.2211 36.5435 35.3801 36.403 35.563 36.252C35.7458 36.0983 36.0055 35.8651 36.1433 35.7352C36.5541 35.3404 37.3517 34.4155 37.5982 34.0472C37.6379 33.9889 37.6909 33.9094 37.7148 33.8723C37.7386 33.8352 37.7678 33.7981 37.781 33.7901C37.7943 33.7822 37.8446 33.708 37.8897 33.6258C37.9374 33.5437 37.993 33.4615 38.0142 33.443C38.0354 33.4244 38.054 33.4006 38.054 33.3873C38.054 33.3741 38.1017 33.2946 38.16 33.2124C38.2183 33.1276 38.266 33.0455 38.266 33.0296C38.266 33.0137 38.2898 32.9792 38.319 32.9527C38.3481 32.9262 38.372 32.8838 38.372 32.8573C38.372 32.8308 38.3879 32.7937 38.4091 32.7725C38.4488 32.7328 38.4886 32.6639 38.6343 32.3671C38.6847 32.2664 38.7483 32.1551 38.7748 32.1206C38.8013 32.0862 38.8225 32.0332 38.8225 32.0067C38.8225 31.9775 38.8463 31.9245 38.8755 31.8874C38.9046 31.8503 38.9285 31.7947 38.9285 31.7682C38.9285 31.739 38.9523 31.686 38.9815 31.6489C39.0106 31.6118 39.0345 31.5615 39.0345 31.5376C39.0345 31.5138 39.053 31.4714 39.0742 31.4449C39.106 31.4025 39.106 31.3866 39.0795 31.3707C39.0318 31.3415 33.3105 31.3442 33.3105 31.3733C33.3105 31.4051 33.0826 31.686 32.8891 31.8874C32.3671 32.436 31.845 32.8812 31.3548 33.1912C31.3309 33.2045 31.2991 33.2257 31.2859 33.2389C31.1057 33.3688 30.6949 33.5993 30.3822 33.7451C30.2365 33.814 30.0854 33.8882 30.0457 33.9094C30.0086 33.9306 29.9556 33.9465 29.9264 33.9465C29.8999 33.9465 29.839 33.9703 29.7913 33.9995C29.7436 34.0286 29.6879 34.0525 29.6641 34.0525C29.6429 34.0525 29.5687 34.0737 29.4998 34.1028C29.4309 34.1293 29.2851 34.177 29.1765 34.2088C29.0678 34.2433 28.9221 34.2857 28.8558 34.3069C28.6571 34.3678 28.2304 34.4447 27.6925 34.5162C27.2817 34.5692 26.3569 34.5692 25.9037 34.5162C25.5725 34.4765 25.1167 34.397 24.8967 34.3387C24.8384 34.3254 24.7245 34.2963 24.645 34.2777C24.4754 34.238 24.1918 34.1452 24.0699 34.0896C24.0249 34.071 23.9666 34.0525 23.9374 34.0525C23.9109 34.0525 23.8553 34.0286 23.8102 33.9995C23.7678 33.9703 23.6989 33.9465 23.6618 33.9465C23.6221 33.9465 23.577 33.9279 23.5585 33.9067C23.5399 33.8855 23.5108 33.867 23.4949 33.867C23.4631 33.867 22.729 33.5039 22.6204 33.435C22.5197 33.3741 22.0851 33.0826 21.942 32.9819C21.8625 32.9262 21.7273 32.8202 21.6425 32.7487C21.457 32.587 21.4305 32.5897 21.2132 32.799C21.1231 32.8838 20.8316 33.1541 20.564 33.4032C20.2963 33.6497 20.0101 33.9173 19.9306 33.9968C19.5305 34.3784 19.1462 34.3546 18.8547 33.9253C18.7646 33.7928 18.762 33.5463 18.8494 33.4006C18.9077 33.2999 19.3132 32.8812 19.6365 32.5817C19.9227 32.3194 20.4951 31.7629 20.5163 31.7311C20.5295 31.7125 20.4712 31.6171 20.3705 31.4899C20.2778 31.376 20.1691 31.2276 20.1294 31.156C20.0896 31.0871 20.0446 31.0315 20.034 31.0315C20.0154 31.0315 19.9041 30.8725 19.8776 30.8062C19.8723 30.7903 19.8485 30.7585 19.8246 30.7294C19.7266 30.6181 19.2125 29.627 19.2125 29.5475C19.2125 29.5263 19.1886 29.468 19.1595 29.4203C19.1303 29.3726 19.1065 29.3143 19.1065 29.2878C19.1065 29.2639 19.0826 29.1977 19.0535 29.142C19.0243 29.089 19.0005 29.0122 19.0005 28.9724C19.0005 28.93 18.9766 28.8611 18.9475 28.8187C18.9183 28.7737 18.8945 28.7021 18.8945 28.6571C18.8945 28.6094 18.8706 28.5219 18.8415 28.4583C18.8123 28.3947 18.7885 28.2993 18.7885 28.249C18.7858 28.1986 18.7673 28.1085 18.7461 28.0502C18.7249 27.9919 18.6904 27.8117 18.6692 27.6527C18.648 27.4911 18.6189 27.295 18.6056 27.2155C18.5738 27.0273 18.5738 25.8163 18.603 25.6255C18.6162 25.546 18.6427 25.3711 18.6586 25.2412C18.6745 25.1087 18.7037 24.9418 18.7249 24.8702C18.7434 24.796 18.7726 24.6662 18.7911 24.5787C18.807 24.4913 18.8388 24.3879 18.8574 24.3482C18.8786 24.3084 18.8945 24.2448 18.8945 24.2077C18.8945 24.1706 18.9104 24.107 18.9316 24.0673C18.9528 24.0275 18.9793 23.9454 18.9899 23.8897C19.0005 23.8314 19.0296 23.7413 19.0561 23.691C19.0853 23.6406 19.1065 23.5797 19.1065 23.5585C19.1065 23.5346 19.1224 23.4949 19.1436 23.4657C19.1621 23.4366 19.186 23.3783 19.1966 23.3332C19.2178 23.2458 19.549 22.5647 19.6497 22.4057C19.6842 22.3474 19.7425 22.2547 19.7743 22.1964C19.8776 22.0241 19.8856 22.0082 19.9492 21.9473C19.981 21.9155 20.0075 21.8757 20.0075 21.8625C20.0075 21.836 20.1903 21.5789 20.2725 21.4888C20.2937 21.4676 20.3599 21.3802 20.4182 21.298C20.5719 21.0807 21.6399 20.034 21.7088 20.034C21.722 20.034 21.8015 19.9783 21.8863 19.9068C21.9711 19.8379 22.093 19.7504 22.1566 19.708C22.2202 19.6683 22.3448 19.5888 22.4322 19.5305C22.5197 19.4722 22.631 19.4059 22.6813 19.3821C22.7317 19.3609 22.7873 19.3238 22.8085 19.3026C22.8297 19.2814 22.8695 19.2655 22.896 19.2655C22.9225 19.2655 22.9516 19.2549 22.9622 19.2416C22.9808 19.2072 23.471 18.9713 23.7042 18.8839C23.8076 18.8441 23.9321 18.7964 23.9825 18.7752C24.0328 18.7567 24.1839 18.709 24.3137 18.6692C24.4462 18.6295 24.6132 18.5791 24.6847 18.5553C24.7589 18.5314 24.8702 18.5049 24.9365 18.4943C25.0027 18.4837 25.1379 18.4546 25.2412 18.4307C25.3419 18.4095 25.44 18.3963 25.4585 18.4016C25.4771 18.4095 25.5592 18.3963 25.644 18.3751C25.9037 18.3035 27.0379 18.277 27.6448 18.3247C27.7428 18.3327 27.8886 18.3565 27.9707 18.3777C28.0529 18.3989 28.1324 18.4095 28.1509 18.4016C28.1695 18.3963 28.2622 18.4095 28.3576 18.4334C28.4504 18.4572 28.5882 18.4837 28.6597 18.4943C28.7339 18.5049 28.8532 18.5314 28.9247 18.5553C28.9989 18.5791 29.1659 18.6321 29.2957 18.6719C29.8469 18.8388 30.4829 19.1171 30.7983 19.3238C30.838 19.3503 30.8884 19.3715 30.9096 19.3715C30.9308 19.3715 30.9652 19.39 30.9864 19.4112C31.0076 19.4324 31.0845 19.4801 31.1534 19.5199C31.2249 19.557 31.3097 19.6126 31.3389 19.6418C31.3707 19.6709 31.4343 19.7133 31.4793 19.7372C31.5694 19.7849 31.8291 19.981 32.0279 20.1453C32.0941 20.2009 32.1604 20.246 32.1763 20.246C32.1922 20.246 32.3432 20.1108 32.5128 19.9465C32.6824 19.7796 32.9077 19.5623 33.0163 19.4616C33.125 19.3609 33.337 19.1595 33.488 19.0137C33.8643 18.6533 33.9544 18.603 34.23 18.603H34.4447L34.5745 18.7328C34.8077 18.9687 34.821 18.9899 34.821 19.1807C34.821 19.3105 34.8077 19.3662 34.768 19.4165C34.7388 19.4536 34.715 19.4987 34.715 19.5172C34.715 19.5411 34.3228 19.9439 34.0684 20.1797C33.9253 20.3122 33.3343 20.8555 33.2098 20.9668C33.1329 21.0357 33.072 21.1046 33.072 21.1205C33.072 21.147 33.2336 21.3696 33.3502 21.4968C33.3873 21.5418 33.5596 21.5445 36.2493 21.5445C38.372 21.5445 39.1166 21.5365 39.1299 21.5153C39.1458 21.4862 39.1219 21.4226 38.9788 21.1417C38.9497 21.0887 38.9285 21.0277 38.9285 21.0065C38.9285 20.9853 38.9046 20.9376 38.8755 20.9005C38.8463 20.8634 38.8225 20.8104 38.8225 20.7813C38.8225 20.7548 38.8013 20.7018 38.7748 20.6673C38.7483 20.6329 38.6873 20.5242 38.6423 20.4262C38.5972 20.3308 38.5469 20.2433 38.5336 20.2354C38.5204 20.2248 38.5018 20.185 38.4912 20.1426C38.4833 20.1002 38.4515 20.0446 38.4223 20.0181C38.3958 19.9942 38.372 19.9518 38.372 19.928C38.372 19.9041 38.3481 19.8617 38.319 19.8352C38.2898 19.8087 38.266 19.7743 38.266 19.7584C38.266 19.7425 38.2183 19.6603 38.16 19.5755C38.1017 19.4934 38.054 19.4112 38.054 19.398C38.054 19.3821 38.0301 19.3476 38.0036 19.3211C37.9771 19.2946 37.9188 19.2125 37.8791 19.1436C37.8393 19.072 37.7969 19.0084 37.789 19.0005C37.7519 18.966 37.6035 18.762 37.6035 18.7461C37.6035 18.7355 37.5346 18.6427 37.4498 18.5394C37.365 18.436 37.2775 18.3194 37.251 18.2797C37.2272 18.2399 37.1742 18.1737 37.1318 18.1313C36.9807 17.9696 36.8668 17.8398 36.6839 17.6225C36.4825 17.3813 35.9923 16.8937 35.7352 16.6817C35.6504 16.6075 35.4808 16.4644 35.3642 16.3611C35.2476 16.2577 35.1045 16.1438 35.0462 16.1067C34.9879 16.0696 34.8766 15.9821 34.7971 15.9159C34.7176 15.847 34.6116 15.7701 34.556 15.741C34.503 15.7145 34.4208 15.6562 34.3731 15.6111C34.3254 15.5661 34.2724 15.529 34.2539 15.5263C34.238 15.5263 34.1717 15.4839 34.1055 15.4336C34.0392 15.3859 33.9597 15.3329 33.9279 15.317C33.8961 15.3037 33.8087 15.2507 33.7371 15.1977C33.6629 15.1474 33.5861 15.105 33.5675 15.105C33.5463 15.105 33.5092 15.0811 33.4827 15.052C33.4562 15.0228 33.4138 14.999 33.3873 14.999C33.3608 14.999 33.3078 14.9698 33.2681 14.9327C33.2283 14.8956 33.1806 14.8665 33.1594 14.8665C33.1382 14.8665 33.0905 14.8426 33.0534 14.8135C33.0163 14.7843 32.9633 14.7605 32.9368 14.7605C32.9103 14.7605 32.8838 14.7499 32.8732 14.7366C32.8573 14.7075 32.5473 14.5485 32.5049 14.5485C32.489 14.5485 32.4466 14.5246 32.4095 14.4955C32.3724 14.4663 32.322 14.4425 32.2955 14.4425C32.2664 14.4425 32.216 14.4186 32.1789 14.3895C32.1418 14.3603 32.0862 14.3365 32.0544 14.3365C32.0226 14.3365 31.9749 14.3206 31.9457 14.2994C31.9166 14.2808 31.8583 14.257 31.8159 14.2464C31.7708 14.2358 31.7046 14.204 31.6648 14.1748C31.6251 14.1483 31.5588 14.1245 31.5138 14.1245C31.4714 14.1245 31.4051 14.1006 31.368 14.0715C31.3309 14.0423 31.262 14.0185 31.2117 14.0185C31.164 14.0185 31.0951 13.9946 31.058 13.9655C31.0209 13.9363 30.9493 13.9125 30.899 13.9125C30.8486 13.9125 30.7718 13.8886 30.7267 13.8595C30.6843 13.8303 30.6075 13.8065 30.5598 13.8065C30.5121 13.8065 30.4167 13.7826 30.3478 13.7561C30.2789 13.727 30.1676 13.6978 30.096 13.6899C30.0271 13.6819 29.9344 13.6581 29.892 13.6342C29.8496 13.613 29.7674 13.5945 29.7065 13.5945C29.6482 13.5945 29.5316 13.5733 29.4468 13.5441C29.3646 13.5176 29.2109 13.4885 29.1076 13.4805C29.0069 13.4726 28.8452 13.4487 28.7498 13.4249C28.6571 13.4037 28.3894 13.3719 28.1562 13.356C27.923 13.3374 27.6739 13.3136 27.6024 13.3003C27.446 13.2712 26.2376 13.2738 26.0892 13.303Z" fill="black"/>
</g>
<defs>
<clipPath id="clip0_14_30">
<rect width="53" height="53" fill="white"/>
</clipPath>
</defs>
</svg>
